<svg id="Layer_1" data-name="Layer 1" xmlns="http://www.w3.org/2000/svg" viewBox="0 0 3840 2160"><defs><style>.cls-1{fill:#28305c;}.cls-2{fill:#272f64;}.cls-3{fill:#20234d;}.cls-4{fill:#242957;}.cls-5{fill:#222651;}.cls-6{fill:#e3e3e2;}.cls-7{fill:#333f76;}.cls-8{fill:#232856;}.cls-9{fill:#252a59;}.cls-10{fill:#283566;}</style></defs><rect class="cls-1" width="3840" height="2160"/><polygon class="cls-2" points="1100.9 0 1188.7 887.4 1001.2 1214.6 905.4 1234.6 214 2160 0 2160 0 0 1100.9 0"/><polygon class="cls-2" points="1124.5 2160 1691.2 1080 2198 1298.4 2198 1039.1 2501.2 1186.7 2896.3 2160 1124.5 2160"/><polygon class="cls-3" points="2198 1039.1 1859.8 1152.7 2198 1298.4 2198 1039.1"/><polygon class="cls-4" points="1691.2 1080 1353 1193.6 743.4 2160 1124.5 2160 1691.2 1080"/><polygon class="cls-5" points="1001.2 1214.6 454.5 0 193.7 0 905.4 1234.6 1001.2 1214.6"/><path class="cls-6" d="M3840,0H3299.4c-72.2,77.4-116.5,182.3-116.5,297.8,0,143.4,68.3,270.5,173.3,348.8l193.2,32.7L3840,749Z"/><path class="cls-2" d="M3535.6,262.1l-8.9,2.8c-2.7.9-5.6,1.9-6.9,4.3s-.8,4.8-.1,7.1,1.7,4.6,1.7,7a24.3,24.3,0,0,0,0,2.7c.5,3.7,4.9,5.5,8.6,5,1.9-.2,3.7-.9,5.6-.8a9,9,0,0,1,6.7,4,22.7,22.7,0,0,1,3.1,7.3,51.7,51.7,0,0,0-1.3,25.3c-6.5,6.7-9.9,15.5-10.5,24.8s.9,18.6,2.5,27.7c-3.9,4.6-5.9,10.5-7.3,16.3s-2.6,11.9-5.2,17.3c-4.3,8.7-7.7,16.9-11.6,25.7-.6,1.4-1.9,3.2-3.4,2.7s-1.3-1.3-1.8-2.1a9.8,9.8,0,0,0-9-4.6,10.1,10.1,0,0,0-8.2,6l22.8,12.7,11.5-4.1a78.2,78.2,0,0,1,14.6-26.3c5.6-6.6,14.3-10.3,21-16,2.3,6.6,8.3,11.3,14.1,15.2a179.1,179.1,0,0,0,52.1,24.1,10.9,10.9,0,0,0-3.8,7.3c-.4,4,1.4,7.8,2.7,11.6s2.2,8.2.1,11.6c-4.2,7.1-12,10.4-19.2,14.4a4.4,4.4,0,0,1-2.9.8c-1.8-.2-2.6-2.1-3.7-3.5a9.6,9.6,0,0,0-10.2-3.7,9.8,9.8,0,0,0-7.2,8.2l26.1,14.6,8-7.2s22.2-6.6,29.3-12.3c1-4.2,1.8-9,3.9-12.8s5.5-7.1,9.6-8.3c3.5,17,16.1,31.8,31.8,39.5,10.6,5.2,23.3,7.5,31,16.4a45.7,45.7,0,0,1-11,25.4c-.6.6-1.3,1.3-2,1.1a2.8,2.8,0,0,1-1.3-.9c-2.3-2.8-5.7-5.1-9.3-4.9s-8.1,4.5-10.9,8.3l24.2,13.5,11.6-4.1c4-10.9,9-22,15.6-31.8,2.7-4.1,3.7-10.6,2.9-15.5-3.8-1.1-6.5-4.7-8.8-8-7.2-10.3-14.2-21.5-15.6-34.1-.8-6.9.4-14.7.4-21.7,0-5.5,0-11-1.4-16.3-2-7.4-6.7-13.6-11.3-19.7-17.6-23.3-51.3-28.2-73.1-47.6-6.9-3.5-11.4-9.8-16.5-15.5s-8.1-9.1-10.8-14.6-3.3-9.9-5.1-14.8a55.9,55.9,0,0,0-9.9-16.6c-7.3-8.1-10.1-20.1-11.1-31-.5-5.5,3.5-10.7,4-16.2a2.2,2.2,0,0,0-.1-.8,1.4,1.4,0,0,0-1.1-.4,16.1,16.1,0,0,0-11.2,3.4,56.2,56.2,0,0,0-24.1-7.5,7.5,7.5,0,0,0-3,.4,5.8,5.8,0,0,0-1.8,1.7C3538.7,256.8,3537.4,259.9,3535.6,262.1Z"/><path class="cls-2" d="M3806.3,472.6c1.6-4.9,3.6-14.2-1.5-20.9a5.7,5.7,0,0,0-6.7-1.9,4.7,4.7,0,0,0-2.4,3.2,4,4,0,0,0,.6,3.6c4.5,5.9,3.3,15.5-2.7,21.4s-13.1,7.5-22,6.9c-11.2-.8-22.6-6.1-32.1-15-7.7-7.2-14.5-16.9-20.8-29.6l-3.3-7.1c.1.2.1.4.2.6,1.4,5.3,1.4,10.8,1.4,16.3,0,1.6-.1,3.2-.2,4.8,8,11.7,17.6,24.6,30.9,32h.3c14.8,8.1,32.4,8.9,44.9,1.9A28.9,28.9,0,0,0,3806.3,472.6Z"/><path class="cls-2" d="M3571.7,250.5a17.4,17.4,0,0,1-1.8,11.4,1.3,1.3,0,0,1-2.2.7,18.2,18.2,0,0,1-5.1-3.6c-.8-.8-1.5-1.6-.8-2.6a9.7,9.7,0,0,1,2.8-2.5A38.5,38.5,0,0,1,3571.7,250.5Z"/><path class="cls-2" d="M3577,407.8c-5-8.6-14.1-14.8-22.7-20.2l.3,2c-3.9,4.6-5.9,10.5-7.3,16.3s-2.6,11.9-5.2,17.3c-4.3,8.7-7.7,16.9-11.6,25.7-.6,1.4-1.9,3.2-3.4,2.7s-1.3-1.3-1.8-2.1a9.8,9.8,0,0,0-9-4.6,10.1,10.1,0,0,0-8.2,6l22.8,12.7,11.5-4.1a78.2,78.2,0,0,1,14.6-26.3c5.6-6.6,14.3-10.3,21-16a22.9,22.9,0,0,0,4.1,6.9A40.7,40.7,0,0,0,3577,407.8Z"/><polygon class="cls-2" points="3442.9 413.4 3840 1010 3840 637.8 3442.9 413.4"/><polygon class="cls-3" points="3840 2160 3840 1010 3442.9 413.4 2921.5 995.6 3472 2160 3840 2160"/><polygon class="cls-3" points="1353 1193.6 743.4 2160 1124.5 2160 1691.2 1080 1353 1193.6"/><path class="cls-7" d="M1741.5,1101.7l-50.3-21.7L1124.5,2160h640.4a1518.7,1518.7,0,0,0,83.4-497.8C1848.3,1464.3,1810.4,1275.2,1741.5,1101.7Z"/><path class="cls-7" d="M1001.2,1214.6l187.5-327.2L1138.1,376A1510.1,1510.1,0,0,0,524.4,155.3Z"/><path class="cls-7" d="M276.6,143.8A1517.5,1517.5,0,0,0,0,178.6V2160H214l691.4-925.4Z"/><path class="cls-8" d="M328.9,142.8c-17.5,0-34.9.4-52.3,1L905.4,1234.6l95.8-20L524.4,155.3A1538.3,1538.3,0,0,0,328.9,142.8Z"/><polygon class="cls-9" points="2896.3 2160 2575.7 1370.2 2198 1787 2198 1787 2198 1918.3 2106.4 1887.9 1859.8 2160 2896.3 2160"/><polygon class="cls-7" points="2058.2 1735.1 2047.2 1868.2 2106.4 1887.9 2198 1787 2058.2 1735.1"/><polygon class="cls-10" points="2198 1787 2198 1787 2106.4 1887.9 2198 1918.3 2198 1787"/></svg>