<svg id="Layer_1" data-name="Layer 1" xmlns="http://www.w3.org/2000/svg" viewBox="0 0 3840 2160"><defs><style>.cls-1{fill:#404040;}.cls-2,.cls-7{fill:#f0f0f0;}.cls-2,.cls-9{opacity:0.8;}.cls-3{fill:#ff8100;}.cls-4{fill:orange;}.cls-5{opacity:0.5;}.cls-6{fill:#e5d1d4;}.cls-8{fill:#282827;}</style></defs><rect class="cls-1" width="3840" height="2160"/><path class="cls-2" d="M0,0V813.9H5.8c449.5,0,814-364.4,814.1-813.9Z"/><polygon class="cls-3" points="2058.5 1430.3 1906.1 1375.9 1906 1375.9 1905.9 1375.9 1753.5 1430.3 1753.5 1514.3 1905.9 1607.4 1906 1607.3 1906.1 1607.4 2058.5 1514.3 2058.5 1430.3"/><polygon class="cls-3" points="2045 1212.3 2235.5 1316.8 2254.8 1298.5 2143.8 1073.9 1906 989 1668.2 1073.9 1557.2 1298.5 1576.6 1316.8 1767 1212.3 1604.3 1343.1 1674.3 1409.5 1872.6 1331 1876.6 1245.2 1776.9 1139.7 2035.2 1139.7 1935.4 1245.2 1939.4 1331 2137.8 1409.5 2207.8 1343.1 2045 1212.3"/><polygon class="cls-4" points="1753.5 1430.3 1753.5 1514.3 1905.9 1607.3 1906 1607.3 1906 1607.3 1906 1375.9 1905.9 1375.9 1753.5 1430.3"/><polygon class="cls-4" points="1668.2 1073.9 1557.2 1298.5 1576.6 1316.8 1767 1212.3 1604.3 1343.1 1674.3 1409.5 1872.6 1331 1876.6 1245.2 1776.9 1139.7 1906 1139.7 1906 989 1668.2 1073.9"/><g class="cls-5"><polygon class="cls-6" points="1629.3 938 1754.2 938 1743.5 995.1 1816.7 934.4 1507.9 839.8 1629.3 938"/><polygon class="cls-7" points="1507.9 839.8 1816.7 934.4 1741.7 839.8 1507.9 839.8"/><polygon class="cls-6" points="2182.8 938 2057.9 938 2068.6 995.1 1995.4 934.4 2304.2 839.8 2182.8 938"/><polygon class="cls-7" points="2304.2 839.8 1995.4 934.4 2070.4 839.8 2304.2 839.8"/></g><polygon class="cls-8" points="2058.5 1514.3 1906.1 1607.4 1906 1607.3 1905.9 1607.4 1905.9 1607.3 1905.9 1607.3 1781.5 1531.4 1781.5 1540.9 1933.8 1633.9 1933.8 1633.9 1933.9 1634 1934 1633.9 1934.1 1634 2086.5 1540.9 2086.5 1456.9 2058.5 1447 2058.5 1514.3"/><polygon class="cls-8" points="1604.3 1343.1 1604.3 1343.1 1767 1212.3 1593.9 1307.3 1585.2 1325.1 1585.2 1325.1 1604.3 1343.1 1604.3 1343.1"/><polygon class="cls-8" points="1966.6 1341.8 1967.4 1357.7 2165.7 1436.1 2238.1 1367.5 2207.8 1343.1 2137.8 1409.5 1966.6 1341.8"/><polygon class="cls-8" points="2153.8 1094.1 2254.8 1298.5 2235.5 1316.8 2045 1212.3 2089.2 1247.8 2263.4 1343.4 2282.8 1325.1 2171.8 1100.5 2153.8 1094.1"/><polygon class="cls-8" points="1780.7 964.2 1769.9 1021.7 1840 963.6 1816.7 934.4 1780.7 964.2"/><polygon class="cls-8" points="1662 964.6 1749.2 964.6 1754.2 938 1629.3 938 1662 964.6"/><polygon class="cls-8" points="2057.9 938 2068.6 995.1 2025 959 2095.7 1017.5 2085.8 964.6 2210.7 964.6 2332.1 866.4 2271.3 866.4 2182.8 938 2057.9 938"/><polygon class="cls-8" points="1674.3 1409.5 1702.2 1436.1 1900.6 1357.7 1904.6 1274.8 1876.6 1245.2 1872.6 1331 1674.3 1409.5"/><polygon class="cls-8" points="2010 1166.3 2035.2 1139.7 1776.9 1139.7 1802.1 1166.4 1802.1 1166.3 2010 1166.3"/><g class="cls-9"><path class="cls-7" d="M1927.8,593.7V536.9c0-7.4,3.3-10.7,10.6-10.7s13.9-.1,20.8,0c13.1.1,22.6,9.4,22.8,22.7.2,11.5.1,22.9.1,34.4,0,18.2.1,36.4,0,54.5-.1,12.1-7.6,21.3-18.8,23-4,.6-8.1.3-12.1.4h-13.1c-6.9-.1-10.3-3.5-10.3-10.5Zm22.6,0V609c0,8.2,0,16.5.1,24.8,0,3.6,1.7,5.1,5.1,4.8s4-1.8,4-6v-78a15.5,15.5,0,0,0-.1-2.2c-.3-2.7-1.8-4-4.5-4s-4.5,1.5-4.6,5.2Z"/><path class="cls-7" d="M1997.7,587.7v-51c0-7.2,3.4-10.5,10.6-10.5,9.1-.1,12,2.8,12,11.9v94.7c0,4.5,1.5,6.1,5.2,5.8a3.8,3.8,0,0,0,3.9-3.4,25.4,25.4,0,0,0,.1-3.9V537c0-3.5.4-6.6,3.4-8.9s12.3-3,15.6.1c1.5,1.3,2.4,3.4,3.2,5.3a7.8,7.8,0,0,1,.3,3.4V637.3c0,10.5-4.3,18.5-14.1,22.1s-18.4,3.4-27.1-.4-13-11.1-13.1-20.6Z"/><path class="cls-7" d="M1842.3,593.7c0,14.1-.4,28.3.1,42.4.6,15.8-11.4,26.3-25.1,25.1-4-.3-8,.1-11.8-.7a21.8,21.8,0,0,1-17.4-21.5c-.1-5.2-.2-10.5.8-15.5,2.1-9.8,11-16.6,21-16.9,1.6,0,3.2.1,4.8,0,3.6-.1,5.1-1.4,5.1-5V553.7c0-3.4-1.5-4.9-4.5-4.9s-4.7,1.4-4.7,5V587c.1,4.2-.8,8.1-4.9,9.9s-9.4,2.1-13.8-.6a8,8,0,0,1-3.9-7.2c0-14-.2-27.9.1-41.8a21.8,21.8,0,0,1,19-20.8,67.5,67.5,0,0,1,16.2,0c11.3,1.5,18.9,10.8,18.9,22.6C1842.4,563.9,1842.3,578.8,1842.3,593.7Zm-27,44.9c2.9,0,4.5-1.7,4.5-4.5a4.4,4.4,0,0,0-4.8-4.5c-2.8.1-4.4,1.8-4.4,4.7S1812.2,638.7,1815.3,638.6Z"/><path class="cls-7" d="M2090.2,577.9v23.6c.1,4.4,1.2,5.5,5.7,5.7s6.6-.1,9.5.8c9,2.7,14.9,8.7,16.1,18.2a62.8,62.8,0,0,1-.1,16.2c-1.3,10.6-10.5,18.5-21.3,18.7-7.6.2-15.3.1-23,.1-5.9-.1-9.4-3.7-9.5-9.7V648c.2-5.5,3.8-9.2,9.3-9.3s11.5,0,17.2,0c3.6-.1,5.2-1.5,5.3-4.6s-1.6-4.7-5.3-4.9-7.9-.3-11.6-1.4a21.6,21.6,0,0,1-14.8-20.3q-.3-29.8,0-59.6c.1-11.8,9.9-21.4,21.7-21.7a85.7,85.7,0,0,1,13.4.3c10.9,1.4,18.9,10.5,19.1,22,.4,13.3.2,26.6.1,39.9-.1,6.1-3.8,9.5-9.9,9.6a14,14,0,0,1-2.9,0c-6.3-.1-9.7-3.5-9.7-9.7-.1-11.4-.1-22.8-.1-34.1,0-2.3-.1-4.6-2.8-5.5s-6.3.6-6.3,4.6C2090.2,561.5,2090.2,569.7,2090.2,577.9Z"/><path class="cls-7" d="M1718.1,599.7c0-15.2.6-30.6-.2-45.8-.9-17.3,9.7-29.5,28.1-27.7,3,.2,6.2,0,9.1.7a22,22,0,0,1,17.1,19.1c.1,1.7.2,3.4.2,5.1,0,18.3,0,36.6-.1,54.8,0,11.8-7.1,20.6-18.2,22.9a36.6,36.6,0,0,1-6.7.4c-5.9.1-6.7.8-6.7,6.9v13.7c0,8.3-3.1,11.4-11.3,11.4h-1.6c-6.1-.1-9.7-3.7-9.7-9.8Zm22.6-22.1v23.9c0,4,1.4,5.6,4.5,5.6s4.7-1.6,4.7-5.5V553.8c0-3.8-1.5-5.4-4.7-5.4s-4.5,1.6-4.5,5.3Z"/><path class="cls-7" d="M1857.9,599.5V550.1c0-14.6,9.4-23.9,24-23.9,3.8,0,7.7-.3,11.4.3a21.7,21.7,0,0,1,18.8,21.1c.3,13.8.1,27.6,0,41.4,0,5.5-3.6,8.7-9.1,9a20.4,20.4,0,0,1-3.5,0c-6.3-.2-9.7-3.5-9.8-9.7V554.2c0-3.9-1.5-5.5-4.7-5.4s-4.2,1.3-4.4,4c-.1,1.1-.1,2.3-.1,3.5v93.4c0,9.9-8.8,15.2-17.7,10.4-3.6-1.8-4.9-5-4.9-9Z"/></g></svg>