<svg xmlns="http://www.w3.org/2000/svg" xmlns:xlink="http://www.w3.org/1999/xlink" viewBox="0 0 3840 2160"><defs><style>.cls-1{isolation:isolate;}.cls-2{fill:#12373f;}.cls-3{fill:url(#radial-gradient);}.cls-4{mix-blend-mode:multiply;fill:url(#radial-gradient-2);}.cls-10,.cls-4{opacity:0.4;}.cls-5{mix-blend-mode:screen;opacity:0.3;fill:url(#radial-gradient-3);}.cls-10,.cls-6,.cls-7{fill:#7c8b99;}.cls-6{opacity:0.2;}.cls-7{opacity:0.1;}.cls-8{fill:#396477;}.cls-9{fill:#194b5b;}</style><radialGradient id="radial-gradient" cx="4115.57" cy="-475.06" fx="4029.36748306482" fy="-486.3099741885148" r="501.22" gradientTransform="matrix(0.84, 0.55, -0.55, 0.84, -441.87, -1279.88)" gradientUnits="userSpaceOnUse"><stop offset="0" stop-color="#fff"/><stop offset="0.63" stop-color="#ededed"/><stop offset="1" stop-color="#e1e0e0"/></radialGradient><radialGradient id="radial-gradient-2" cx="4158.89" cy="-412.5" fx="4158.890154963114" fy="-412.5043428369918" r="436.06" xlink:href="#radial-gradient"/><radialGradient id="radial-gradient-3" cx="4150.91" cy="-689.12" fx="4150.911995410868" fy="-689.1201059036921" r="323.56" gradientTransform="matrix(0.79, 0.61, -0.61, 0.79, -429.87, -1461.07)" xlink:href="#radial-gradient"/></defs><g class="cls-1"><g id="Layer_1" data-name="Layer 1"><rect class="cls-2" width="3840" height="2160"/><path class="cls-3" d="M3478.8,1025.7c-210.8,116.3-476.1,39.6-592.4-171.3S2846.9,378.3,3057.7,262s476.1-39.6,592.4,171.3S3689.7,909.4,3478.8,1025.7Z"/><path class="cls-4" d="M3401.7,228.6c133.1,46.9,235.9,164.8,256.2,314.2,29.1,212.7-119.8,408.6-332.5,437.6s-408.6-119.9-437.6-332.5c-28.7-210.9,117.4-405.2,327.1-436.8l-5.6.7c-238.6,32.5-405.6,252.4-373.1,491s252.4,405.6,491,373.1,405.7-252.4,373.1-491C3676.9,413.1,3556.4,278.4,3401.7,228.6Z"/><path class="cls-5" d="M3615.2,509.8c9.5,170-134,316.2-320.5,326.6s-345.4-118.9-354.9-288.9S3073.9,231.3,3260.4,221,3605.7,339.9,3615.2,509.8Z"/><path class="cls-6" d="M3840,974.5a123.4,123.4,0,0,0-88.3-37.3,172.9,172.9,0,0,0-182-148.2,169.8,169.8,0,0,0-36.6,6.3,194.7,194.7,0,0,0-333.9-15.8,176.4,176.4,0,0,0-76.2-12,178.6,178.6,0,0,0-164.2,145.1,144.1,144.1,0,0,0-111.7,220.1H3840Z"/><path class="cls-7" d="M3840,816.6l-2.7.3c-9.7-109.7-101.7-195.7-213.9-195.7-117.1,0-212.2,93.7-214.6,210.3a155.4,155.4,0,0,0-78.8,191.4h510Z"/><path class="cls-8" d="M3840,2160V956.7C1323.4,956.7,429.4,1747,134.1,2160Z"/><path class="cls-9" d="M134.1,2160c148.4-207.5,447.8-510.2,1028.1-760.1-273.5-105-666.6-216.5-1162.2-254V2160Z"/><path class="cls-2" d="M1162.2,1399.9h0S407.5,1573,0,2160H134.1C282.5,1952.5,581.9,1649.8,1162.2,1399.9Z"/><path class="cls-10" d="M2836.2,702.8a434.6,434.6,0,0,1,7.7-159.7,126.8,126.8,0,0,0-217.5,88.5v.4a125.3,125.3,0,0,0-149.5,166.5,149.9,149.9,0,0,0-61,147.9,186.9,186.9,0,0,0-92.5-24.4c-102.7,0-186.1,82.4-187.7,184.6,257.2-51.2,544.7-91.8,866-117.7A434.7,434.7,0,0,1,2836.2,702.8Z"/><path class="cls-7" d="M442.5,1201.8a87.8,87.8,0,0,0-138.6-92,83.5,83.5,0,0,0-78.2-54.8,85.9,85.9,0,0,0-14.5,1.4,139.4,139.4,0,0,0,.8-14.5A135.3,135.3,0,0,0,0,930.3v215.6A4423.3,4423.3,0,0,1,442.5,1201.8Z"/><path class="cls-9" d="M3134.6,996.6a13.2,13.2,0,0,0,16.1-.2c1.2-1,2.5-2.2,4-2s3.1,4.6,3.1,7.8c-.2,18.8-.6,36.1-.2,55,.2,11.8-2.2,23.2-3.9,34.8s-2.9,23.4-.2,34.9c-8.3,14.6-16.8,29.5-22,46.2a91.4,91.4,0,0,0-1.1,52.6,109.2,109.2,0,0,0-14.8,45.3c-2.7,3.9-5.7,7.7-9.4,10s-8.3,3.2-12.3,1.1-5-4.3-7.5-6.4c-5-4.1-12.6-4.8-15.8,1.1-.7,1.5-1.1,3.2-1.7,4.8-1.6,4.2-4.6,7.3-7.1,10.7s-4.8,7.7-4.5,12.4,3.8,9.8,7.1,13.7,7.3,8.5,11,12.8c1.2,5.4,1,12,2.1,17.4a15.9,15.9,0,0,0,1.5,4.5,10,10,0,0,0,4.1,3.3,71.5,71.5,0,0,0,26.4,8,24.3,24.3,0,0,0,2.4,6.7c2.2,4.6,5.2,8.4,8.1,12.2a38.4,38.4,0,0,0,4.7-14.8,30,30,0,0,0,12.1,12.1c.6.3,1.3.6,1.8.2a2.1,2.1,0,0,0,.7-1.4c2.9-9.9.6-22.6,4.9-31.7,8.6-18.1,20.6-36.6,36.5-44.4a79.2,79.2,0,0,0,25.2-20.1c5.9-7,10.9-15.1,17.3-21.4s16.4-11.6,25.2-15.9c11.1-5.4,21.9-12.5,34-12.5,44.4-14.6,96.3,6.7,137.1-18.5,10.7-6.6,21.6-13.4,29.3-24.4l-.6.9c3.1-3.3,6.3-6.5,9.5-9.5,17.4-16.7,33.6-27.6,49.5-33.3,19.7-7.1,39.7-6.3,56.3,2.2,13.4,6.7,23.3,18.3,27.3,31.6,4.7,15.5.1,33.2-10.3,39.6a8.1,8.1,0,0,0-3.2,5.7,11.2,11.2,0,0,0,1.4,7.8,8.1,8.1,0,0,0,11,2.6c11.7-7.3,15-25.2,16-35.2a69.2,69.2,0,0,0-8.7-40.3,73.7,73.7,0,0,0-66.1-36.4h-.6c-24,1.2-46.4,15.2-65.7,28.5l-.6,1.8c3.6-10.6,6.8-22.2,11.5-31.5,10.3-20.7,27.7-34.1,45-45.8,5.5-3.7,11.7-7.6,17.9-6.1,4.4-7.9,7.3-20.1,6.1-29.7-3-22.8-2.9-46.6-1.6-69.4l-12.2-13.2-47,1.4c1.5,8.2,5.7,16.6,11.6,20.7s11.4,2.6,16.7-.1a3.6,3.6,0,0,1,2.4-.6c1.2.4,1.8,2.1,2.2,3.6a112,112,0,0,1-.9,54.3c-17.1,8.7-36.9,1.4-55.7,1.1-27.6-.4-55.6,14.3-71.9,41-5.2-5.9-7.8-14.6-8.4-23.1s1.4-17.6,2.8-25.8c-6.6-16.3-34.3-47.3-34.3-47.3l-6.1-18.4-50.4,2.4c-1.4,6.8,2.8,14.7,7.3,19.4s12,6.1,17.3,2.6c2.4-1.5,4.9-4,7.6-3s2.7,2.4,3.7,4.1c7.8,13.3,16.8,26,18.3,42.1.7,7.8-3.4,14.7-7.8,20.2s-9.5,10.5-11.6,17.8a26.4,26.4,0,0,0,.6,16.2,233.6,233.6,0,0,0-91.1-4.1l-2.2.4c-5.4-11.3-11.8-22.2-14.6-34.4a184.2,184.2,0,0,1-3.6-58.7l-11.4-17.9-28.3,1.7-49.6,3.2A21.9,21.9,0,0,0,3134.6,996.6Zm328.6,162.2-1.5,4.3ZM3181.9,996.2a14.9,14.9,0,0,0,2.4-1.4c1.2-1,2.4-2.2,3.9-2s3.2,4.6,3.1,7.7c-.1,18.9-.6,36.1-.2,55a92.4,92.4,0,0,1-.5,11.8,78.8,78.8,0,0,1-4.9-14.4C3181.3,1034.1,3180.4,1015.3,3181.9,996.2Z"/><path class="cls-9" d="M3212.9,963.8c-3.7-15.7-4.8-31.4-2.3-47.3,1.5-10.1,6.7-19.3,10.9-28.8h2.2a283.8,283.8,0,0,0,89.8-11,17,17,0,0,0,1.1,12.9c2.8,5.7,8.3,9.4,13.2,13.3s9.7,9.2,9.8,15.5c.2,13-7.4,23.9-13.8,35.2a7.3,7.3,0,0,1-3.3,3.6c-2.5,1.1-5.2-.7-7.8-1.7a15.3,15.3,0,0,0-16.8,3.6,14.8,14.8,0,0,0-4.1,10.8c16.6-.9,33.4-1.7,50.3-2.4l2.9-9.9s24.2-27.2,29-40.8c-2.2-6.5-5-13.6-5.3-20.4s1.4-14,5.9-19.2c18.9,20,48.1,29.3,75.4,26.6,18.5-1.8,37.4-9.3,55.2-3.8,6.4,13.6,8.9,28.4,6.4,43.3-.2,1.2-.6,2.6-1.8,3.1a3.4,3.4,0,0,1-2.4-.3c-5.5-1.7-11.9-2-16.6,1.3s-6.3,8.9-7.1,14.7l47-1.4,8.2-10.2c-3.7-18.1-6.2-37.2-5.6-55.6.3-7.8-3.8-17.4-8.9-23.3-6.1,1.7-12.6-.9-18.4-3.4-18.3-7.9-36.9-17-49.3-32.7-5.6-7.1-9.9-16.1-14.5-24.2l.8,1.3c20.4,9,44,18.3,67.9,17.2h.6c26.5-1.5,50.8-15.1,61.8-34.8a46.3,46.3,0,0,0,4.4-33c-2-8-7.1-22-19.4-26.8-3.9-1.5-8.5-.2-10.6,3a7.4,7.4,0,0,0-.6,6.4,6.8,6.8,0,0,0,3.8,4.3c10.9,4.2,17.3,18,14.2,30.8-2.6,11-11.3,21-23.8,27.6-15.6,8.2-35.4,10.6-55.5,6.6-16.4-3.3-33.5-10.6-52.5-22.4-3.5-2.2-6.9-4.5-10.3-6.8l.7.6c-8.8-8.1-20.3-12.6-31.5-17-43-16.6-92.1,4.9-137.6-3.1-12,1.1-23.4-3.6-35-7-9.1-2.7-18.4-5.5-26.5-10.6s-12.7-10.5-19.3-15.6a80.6,80.6,0,0,0-27-13.9c-16.5-5-30.3-18.7-40.7-32.5-5.2-6.9-4.2-17.2-8-24.9a1.9,1.9,0,0,0-.9-1.1,2.1,2.1,0,0,0-1.7.3,26.1,26.1,0,0,0-10.8,10.8,28.5,28.5,0,0,0-6.1-11.5,51,51,0,0,0-6.8,10.5c-.7,1.6-1.7,3.7-1.7,5.6a81.2,81.2,0,0,0-25.4,8.6,8.8,8.8,0,0,0-3.6,3,7.9,7.9,0,0,0-1,3.7c-.6,4.5.3,9.7-.3,14.2-3.3,3.7-6.5,7.4-9.7,11.2s-5.9,7.1-5.6,11.5,2.9,7,5.7,9.5,6.1,4.8,8.1,8c.8,1.2,1.3,2.5,2.2,3.6,3.7,4.6,11.3,3.3,15.8-.4,2.3-1.9,4.2-4.3,6.8-5.8s8.3-1.7,12.2-.1,7.2,4.3,10.3,7.2a81.3,81.3,0,0,0,19.3,34.9c-3.2,14.4-.5,29,6.4,42s16.8,24.1,26.5,35.1c-1.4,9.4.8,18.9,3.7,28s6.5,18,7.5,27.5c1.5,15.1,3.7,28.9,5.8,44,.3,2.5.1,5.8-2.3,6.4s-2.8-.6-4.1-1.2a15.1,15.1,0,0,0-22.1,13.3l77.9-4.9Zm228.3-154.2a37.9,37.9,0,0,0-2-3.4A37.9,37.9,0,0,1,3441.2,809.6ZM3185.8,965.9c-1.4.4-2.8-.5-4-1.2l-2.6-1c-3.4-15.1-4.4-30.3-2-45.6a63.1,63.1,0,0,1,3.4-12,59.8,59.8,0,0,1,1.7,9.4c1.6,15.2,3.8,28.9,5.9,44C3188.5,962,3188.3,965.4,3185.8,965.9Z"/></g></g></svg>