<svg id="Layer_1" data-name="Layer 1" xmlns="http://www.w3.org/2000/svg" xmlns:xlink="http://www.w3.org/1999/xlink" viewBox="0 0 3840 2160"><defs><style>.cls-1{fill:url(#linear-gradient);}.cls-2,.cls-7{fill:#f0f0f0;}.cls-2,.cls-3,.cls-4,.cls-5{opacity:0.8;}.cls-3{fill:#dab000;}.cls-4{fill:#ffd300;}.cls-6{fill:#e5d1d4;}.cls-8{fill:#a03833;}</style><linearGradient id="linear-gradient" x1="-158.65" y1="-179.98" x2="2435.17" y2="1392.27" gradientUnits="userSpaceOnUse"><stop offset="0.1" stop-color="#db5e50"/><stop offset="0.38" stop-color="#cf594c"/><stop offset="0.52" stop-color="#c75649"/><stop offset="0.79" stop-color="#bf5346"/><stop offset="1" stop-color="#b75043"/></linearGradient></defs><rect class="cls-1" width="3840" height="2160"/><path class="cls-2" d="M0,0V813.9H5.8c449.5,0,814-364.4,814.1-813.9Z"/><polygon class="cls-3" points="2058.5 1450.9 1906.1 1396.4 1906 1396.5 1905.9 1396.4 1753.5 1450.9 1753.5 1534.9 1905.9 1627.9 1906 1627.9 1906.1 1627.9 2058.5 1534.9 2058.5 1450.9"/><polygon class="cls-3" points="2045 1232.9 2235.5 1337.4 2254.8 1319 2143.8 1094.5 1906 1009.6 1668.2 1094.5 1557.2 1319 1576.6 1337.4 1767 1232.9 1604.3 1363.7 1674.3 1430.1 1872.6 1351.6 1876.6 1265.7 1776.9 1160.3 2035.2 1160.3 1935.4 1265.7 1939.4 1351.6 2137.8 1430.1 2207.8 1363.7 2045 1232.9"/><polygon class="cls-4" points="1753.5 1450.9 1753.5 1534.9 1905.9 1627.9 1906 1627.9 1906 1627.9 1906 1396.5 1905.9 1396.4 1753.5 1450.9"/><polygon class="cls-4" points="1668.2 1094.5 1557.2 1319 1576.6 1337.4 1767 1232.9 1604.3 1363.7 1674.3 1430.1 1872.6 1351.6 1876.6 1265.7 1776.9 1160.3 1906 1160.3 1906 1009.6 1668.2 1094.5"/><g class="cls-5"><polygon class="cls-6" points="1629.3 958.6 1754.2 958.6 1743.5 1015.7 1816.7 955 1507.9 860.4 1629.3 958.6"/><polygon class="cls-7" points="1507.9 860.4 1816.7 955 1741.7 860.4 1507.9 860.4"/><polygon class="cls-6" points="2182.8 958.6 2057.9 958.6 2068.6 1015.7 1995.4 955 2304.2 860.4 2182.8 958.6"/><polygon class="cls-7" points="2304.2 860.4 1995.4 955 2070.4 860.4 2304.2 860.4"/></g><polygon class="cls-3" points="2058.5 1450.9 1906.1 1396.4 1906 1396.5 1905.9 1396.4 1753.5 1450.9 1753.5 1534.9 1905.9 1627.9 1906 1627.9 1906.1 1627.9 2058.5 1534.9 2058.5 1450.9"/><polygon class="cls-3" points="2045 1232.9 2235.5 1337.4 2254.8 1319 2143.8 1094.5 1906 1009.6 1668.2 1094.5 1557.2 1319 1576.6 1337.4 1767 1232.9 1604.3 1363.7 1674.3 1430.1 1872.6 1351.6 1876.6 1265.7 1776.9 1160.3 2035.2 1160.3 1935.4 1265.7 1939.4 1351.6 2137.8 1430.1 2207.8 1363.7 2045 1232.9"/><polygon class="cls-4" points="1753.5 1450.9 1753.5 1534.9 1905.9 1627.9 1906 1627.9 1906 1627.9 1906 1396.5 1905.9 1396.4 1753.5 1450.9"/><polygon class="cls-4" points="1668.2 1094.5 1557.2 1319 1576.6 1337.4 1767 1232.9 1604.3 1363.7 1674.3 1430.1 1872.6 1351.6 1876.6 1265.7 1776.9 1160.3 1906 1160.3 1906 1009.6 1668.2 1094.5"/><g class="cls-5"><polygon class="cls-6" points="1629.3 958.6 1754.2 958.6 1743.5 1015.7 1816.7 955 1507.9 860.4 1629.3 958.6"/><polygon class="cls-7" points="1507.9 860.4 1816.7 955 1741.7 860.4 1507.9 860.4"/><polygon class="cls-6" points="2182.8 958.6 2057.9 958.6 2068.6 1015.7 1995.4 955 2304.2 860.4 2182.8 958.6"/><polygon class="cls-7" points="2304.2 860.4 1995.4 955 2070.4 860.4 2304.2 860.4"/></g><polygon class="cls-8" points="2058.5 1534.9 1906.1 1627.9 1906 1627.9 1905.9 1627.9 1905.9 1627.9 1905.9 1627.9 1781.5 1551.9 1781.5 1561.5 1933.8 1654.5 1933.8 1654.5 1933.9 1654.5 1934 1654.5 1934.1 1654.5 2086.5 1561.5 2086.5 1477.5 2058.5 1467.5 2058.5 1534.9"/><polygon class="cls-8" points="1604.3 1363.7 1604.3 1363.7 1767 1232.9 1593.9 1327.9 1585.2 1345.6 1585.2 1345.6 1604.3 1363.7 1604.3 1363.7"/><polygon class="cls-8" points="1966.6 1362.4 1967.4 1378.2 2165.7 1456.7 2238.1 1388.1 2207.8 1363.7 2137.8 1430.1 1966.6 1362.4"/><polygon class="cls-8" points="2153.8 1114.7 2254.8 1319 2235.5 1337.4 2045 1232.9 2089.2 1268.4 2263.4 1364 2282.8 1345.6 2171.8 1121.1 2153.8 1114.7"/><polygon class="cls-8" points="1780.7 984.8 1769.9 1042.3 1840 984.2 1816.7 955 1780.7 984.8"/><polygon class="cls-8" points="1662 985.2 1749.2 985.2 1754.2 958.6 1629.3 958.6 1662 985.2"/><polygon class="cls-8" points="2057.9 958.6 2068.6 1015.7 2025 979.5 2095.7 1038.1 2085.8 985.2 2210.7 985.2 2332.1 887 2271.3 887 2182.8 958.6 2057.9 958.6"/><polygon class="cls-8" points="1674.3 1430.1 1702.2 1456.7 1900.6 1378.2 1904.6 1295.4 1876.6 1265.7 1872.6 1351.6 1674.3 1430.1"/><polygon class="cls-8" points="2010 1186.9 2035.2 1160.3 1776.9 1160.3 1802.1 1186.9 1802.1 1186.9 2010 1186.9"/><g class="cls-5"><path class="cls-7" d="M1927.8,573.2V516.5c0-7.5,3.3-10.8,10.6-10.8h20.8c13.1.1,22.6,9.4,22.8,22.7.2,11.5.1,23,.1,34.4,0,18.2.1,36.4,0,54.5-.1,12.1-7.6,21.3-18.8,23-4,.6-8.1.3-12.1.4h-13.1c-6.9-.1-10.3-3.5-10.3-10.5Zm22.6,0v15.3c0,8.3,0,16.5.1,24.8,0,3.6,1.7,5.1,5.1,4.8s4-1.8,4-6v-78a15.5,15.5,0,0,0-.1-2.2c-.3-2.7-1.8-4-4.5-4s-4.5,1.5-4.6,5.2Z"/><path class="cls-7" d="M1997.7,567.2v-51c0-7.2,3.4-10.5,10.6-10.5,9.1-.1,12,2.8,12,11.9v94.7c0,4.5,1.5,6.1,5.2,5.9a3.9,3.9,0,0,0,3.9-3.5,25.4,25.4,0,0,0,.1-3.9V516.5c0-3.4.4-6.6,3.4-8.9s12.3-3,15.6.1c1.5,1.3,2.4,3.4,3.2,5.3a7.8,7.8,0,0,1,.3,3.4V616.8c0,10.5-4.3,18.5-14.1,22.1a35.8,35.8,0,0,1-27.1-.4c-8.7-3.8-13-11.1-13.1-20.6Z"/><path class="cls-7" d="M1842.3,573.2c0,14.1-.4,28.3.1,42.4.6,15.8-11.4,26.3-25.1,25.1-4-.3-8,.1-11.8-.7a21.8,21.8,0,0,1-17.4-21.5c-.1-5.2-.2-10.5.8-15.5,2.1-9.8,11-16.6,21-16.8h4.8c3.6-.1,5.1-1.4,5.1-5V533.2c0-3.4-1.5-4.9-4.5-4.9s-4.7,1.4-4.7,5v33.2c.1,4.2-.8,8.1-4.9,9.9s-9.4,2.1-13.8-.6a8,8,0,0,1-3.9-7.2c0-14-.2-27.9.1-41.8a21.8,21.8,0,0,1,19-20.8,67.5,67.5,0,0,1,16.2,0c11.3,1.5,18.9,10.8,18.9,22.6C1842.4,543.4,1842.3,558.3,1842.3,573.2Zm-27,45c2.9-.1,4.5-1.8,4.5-4.6a4.4,4.4,0,0,0-4.8-4.5c-2.8.1-4.4,1.8-4.4,4.7S1812.2,618.2,1815.3,618.2Z"/><path class="cls-7" d="M2090.2,557.4V581c.1,4.4,1.2,5.5,5.7,5.7s6.6-.1,9.5.8c9,2.7,14.9,8.7,16.1,18.2a62.8,62.8,0,0,1-.1,16.2c-1.3,10.6-10.5,18.5-21.3,18.7-7.6.2-15.3.1-23,.1-5.9-.1-9.4-3.7-9.5-9.7v-3.5c.2-5.5,3.8-9.2,9.3-9.3s11.5,0,17.2,0c3.6-.1,5.2-1.5,5.3-4.6s-1.6-4.7-5.3-4.9-7.9-.3-11.6-1.4a21.6,21.6,0,0,1-14.8-20.3q-.3-29.8,0-59.6c.1-11.8,9.9-21.4,21.7-21.7a85.7,85.7,0,0,1,13.4.3c10.9,1.4,18.9,10.5,19.1,22,.4,13.3.2,26.6.1,39.9-.1,6.1-3.8,9.5-9.9,9.6a14,14,0,0,1-2.9,0c-6.3-.1-9.7-3.5-9.7-9.7-.1-11.4-.1-22.7-.1-34.1,0-2.3-.1-4.6-2.8-5.5s-6.3.6-6.3,4.6C2090.2,541,2090.2,549.2,2090.2,557.4Z"/><path class="cls-7" d="M1718.1,579.2c0-15.2.6-30.6-.2-45.8-.9-17.2,9.7-29.5,28.1-27.7,3,.2,6.2,0,9.1.7a22,22,0,0,1,17.1,19.1c.1,1.7.2,3.4.2,5.1,0,18.3,0,36.6-.1,54.8,0,11.8-7.1,20.6-18.2,22.9a36.6,36.6,0,0,1-6.7.4c-5.9.1-6.7.8-6.7,6.9v13.7c0,8.3-3.1,11.4-11.3,11.4h-1.6c-6.1-.1-9.7-3.6-9.7-9.8Zm22.6-22.1V581c0,4,1.4,5.6,4.5,5.6s4.7-1.6,4.7-5.5V533.3c0-3.8-1.5-5.4-4.7-5.4s-4.5,1.6-4.5,5.3Z"/><path class="cls-7" d="M1857.9,579V529.6c0-14.6,9.4-23.9,24-23.9,3.8,0,7.7-.3,11.4.3a21.8,21.8,0,0,1,18.8,21.1c.3,13.8.1,27.6,0,41.4,0,5.5-3.6,8.7-9.1,9a20.4,20.4,0,0,1-3.5,0c-6.3-.1-9.7-3.4-9.8-9.7V533.7c0-3.9-1.5-5.5-4.7-5.4s-4.2,1.3-4.4,4c-.1,1.1-.1,2.3-.1,3.5v93.4c0,9.9-8.8,15.2-17.7,10.4-3.6-1.8-4.9-5-4.9-8.9Z"/></g></svg>