<?xml version="1.0" encoding="UTF-8" standalone="no"?>
<svg
   xmlns:dc="http://purl.org/dc/elements/1.1/"
   xmlns:cc="http://creativecommons.org/ns#"
   xmlns:rdf="http://www.w3.org/1999/02/22-rdf-syntax-ns#"
   xmlns:svg="http://www.w3.org/2000/svg"
   xmlns="http://www.w3.org/2000/svg"
   xmlns:xlink="http://www.w3.org/1999/xlink"
   xmlns:sodipodi="http://sodipodi.sourceforge.net/DTD/sodipodi-0.dtd"
   xmlns:inkscape="http://www.inkscape.org/namespaces/inkscape"
   x="0pt"
   y="0pt"
   width="3840"
   height="2160"
   viewBox="0 0 2880 1620"
   version="1.1"
   id="svg518"
   sodipodi:docname="Pardus Arkaplan1.svg"
   inkscape:version="1.0.2 (e86c870879, 2021-01-15)">
  <metadata
     id="metadata524">
    <rdf:RDF>
      <cc:Work
         rdf:about="">
        <dc:format>image/svg+xml</dc:format>
        <dc:type
           rdf:resource="http://purl.org/dc/dcmitype/StillImage" />
        <dc:title></dc:title>
      </cc:Work>
    </rdf:RDF>
  </metadata>
  <defs
     id="defs522" />
  <sodipodi:namedview
     pagecolor="#ffffff"
     bordercolor="#666666"
     borderopacity="1"
     objecttolerance="10"
     gridtolerance="10"
     guidetolerance="10"
     inkscape:pageopacity="0"
     inkscape:pageshadow="2"
     inkscape:window-width="1920"
     inkscape:window-height="1004"
     id="namedview520"
     showgrid="false"
     units="px"
     inkscape:zoom="0.13320313"
     inkscape:cx="2105.3815"
     inkscape:cy="1384.7844"
     inkscape:window-x="0"
     inkscape:window-y="18"
     inkscape:window-maximized="1"
     inkscape:current-layer="svg518" />
  <g
     id="1"
     transform="scale(0.75)">
    <title
       id="title2">Layer 1</title>
    <g
       id="2">
      <title
         id="title4">Group</title>
      <clipPath
         id="4">
        <use
           xlink:href="#3"
           id="use6"
           x="0"
           y="0"
           width="100%"
           height="100%" />
        <path
           id="3"
           d="m 0,0 c 1280,0 2560,0 3840,0 0,720 0,1440 0,2160 -1280,0 -2560,0 -3840,0 C 0,1440 0,720 0,0 Z" />
      </clipPath>
      <g
         id="5"
         clip-path="url(#4)">
        <title
           id="title10">Clipping Group</title>
        <defs
           id="defs20">
          <title
             id="title12">Shape 3</title>
          <g
             id="6">
            <defs
               id="defs15">
              <path
                 id="7"
                 d="m 0,0 c 1280,0 2560,0 3840,0 0,720 0,1440 0,2160 -1280,0 -2560,0 -3840,0 C 0,1440 0,720 0,0 Z" />
            </defs>
            <use
               xlink:href="#7"
               style="opacity:1;fill:#002f3f;fill-opacity:1;fill-rule:evenodd;stroke:none"
               id="use17"
               x="0"
               y="0"
               width="100%"
               height="100%" />
          </g>
        </defs>
        <use
           xlink:href="#6"
           id="use22"
           x="0"
           y="0"
           width="100%"
           height="100%" />
        <g
           id="8">
          <title
             id="title24">Group</title>
          <defs
             id="defs34">
            <title
               id="title26">Shape 4</title>
            <g
               id="9">
              <defs
                 id="defs29">
                <path
                   id="10"
                   d="m 3799.58,922.658 c -21.12,-12.697 -71.4,-46.702 -97.24,-52.311 -30.23,-6.562 -66.83,27.896 -91.82,35.128 -9.04,2.616 -22.53,-4.89 -31.13,-6.756 -17.3,-3.754 -37.92,4.944 -54.47,1.351 -24.95,-5.416 -11.09,-48.049 -31.12,-56.744 -13.7,-5.943 -17.68,22.049 -31.13,16.212 -16.05,-6.967 -15.25,-34.045 -38.91,-39.181 -3.1,-0.672 -7.73,0 -10.89,0 -2.55,0 -5.94,2.45 -7.78,4.054 -28.48,24.721 -48.83,12.947 -63.81,21.617 -2.16,1.249 -4.39,2.46 -6.23,4.053 -25.72,22.332 -30.76,50.506 -63.81,64.851 -1.03,0 -2.07,0 -3.11,0 -5.75,0 -16.69,-56.255 -62.25,-36.479 -11.5,4.992 -22.24,31.86 -28.02,41.883 -18.09,31.421 -68.48,33.784 -94.93,56.745 -5.36,4.656 -19.96,21.735 -29.57,17.564 -23.7,-10.286 -36.86,-51.91 -65.37,-58.096 -22.51,-4.885 -45.75,41.561 -76.25,25.67 -13.09,-6.816 -20.61,-22.689 -32.69,-31.074 -17.22,-11.963 -45.14,-16.223 -60.69,-29.724 -14.08,-12.217 -10.66,-34.542 -28.02,-44.585 -26.2,-15.166 -73.06,16.27 -98.04,0 -12.08,-7.859 -22.43,-38.916 -32.69,-41.883 -26.29,-7.609 -53.28,53.382 -77.81,39.181 -16,-9.259 -11.69,-29.064 -24.9,-40.532 -24,-20.83 -55.37,-27.294 -76.26,-52.691 -13.67,-16.615 -17.16,-41.914 -34.24,-56.745 -20.44,-17.742 -46.46,-4.082 -68.48,-27.021 -34.73,-36.183 -58.1,-78.814 -96.49,-112.139 -16.49,-14.313 -26.37,-31.499 -48.25,-37.83 -16.07,-4.65 -81.54,60.406 -99.6,71.607 -5.44,3.376 -4.25,3.218 -9.34,6.755 -12.93,8.983 -4.75,-16.454 -17.12,-12.16 -1.53,0.531 -10.52,6.471 -10.89,6.756 -62.08,47.152 -86.21,154.548 -152.52,212.117 -23.55,20.448 -118.86,-78.574 -132.29,-75.66 -6.79,1.475 -12.63,8.185 -18.67,10.809 -14.4,6.249 -31.89,0.761 -46.69,8.106 -40.37,20.025 -65.1,60.567 -94.94,86.468 -10.14,8.808 -22.26,4.157 -34.24,6.755 -33.84,7.345 -65.79,27.907 -99.6,33.777 -19.67,3.415 -36.25,-11.287 -56.03,-2.702 -15.84,6.876 -29.56,21.954 -46.69,25.67 -11.4,2.475 -11.8,-6.802 -14,-13.51 -25.1,-76.25 -73.69,-23.205 -119.84,-43.235 -16.97,-7.368 -66.25,-58.79 -93.38,-63.499 -21.82,-3.788 -47.5,28.018 -65.36,20.265 -18.18,-7.888 -14.76,-63.337 -51.36,-55.393 -43.59,9.461 -65.26,71.583 -108.943,81.064 -18.917,4.105 -23.211,-10.164 -31.126,-21.617 -16.711,-24.178 -64.759,-20.465 -85.598,-44.585 -14.682,-16.996 -20.329,-38.232 -40.464,-51.341 -44.823,-29.184 -58.052,-14.084 -104.272,-4.053 -15.357,3.333 -31.911,-8.106 -48.246,-8.106 -10.353,0 -23.391,5.841 -34.239,2.702 -18.986,-5.494 -22.222,-36.235 -48.246,-41.883 -18.681,-4.055 -37.49,39.374 -45.133,49.989 -11.654,16.188 -67.519,40.791 -88.709,49.989 -40.092,17.403 -70.485,-4.131 -101.161,-9.457 -27.557,-4.785 -52.57,14.787 -77.815,20.266 -11.056,2.399 -14.078,-8.091 -26.458,-5.404 -19.572,4.247 -69.821,61.672 -93.378,77.01 C 118.44,856.651 98.5857,841.9 77.6918,852.783 6.71636,889.752 8.51323,838.265 -25.0246,777.123 -40.6316,748.671 -117.082,1502.46 -125.912,1471.8 c -11.086,-38.5 -15.653,-111.36 -10.894,-152.67 12.917,-112.13 57.8131,1237.62 167.6402,1217.01 136.6228,-25.64 364.1998,9.73 502.2288,-8.55 83.228,-11.02 165.6,-26.3 249.01,-36.48 478.067,-58.36 956.617,-50.57 1438.027,-43.23 99.12,1.51 198.22,0.44 297.26,5.4 123.33,6.18 246.99,17.57 370.4,21.62 189.38,6.2 377.69,6.58 566.5,22.97 91.74,7.96 187.51,12.37 275.47,37.83 29.94,8.66 57.21,26.62 68.47,52.69 8.05,18.61 2.42,42.61 4.67,62.15 2.52,21.85 221.12,-1090.76 224.68,-1069.13 13.73,83.46 -163.77,-870.417 -197.59,-792.129 -13.26,30.683 3.07,61.844 -8.72,92.549 -3.27,8.494 -10.77,40.827 -21.66,40.827 z" />
              </defs>
              <use
                 xlink:href="#10"
                 style="opacity:1;fill:#023b4d;fill-opacity:1;fill-rule:evenodd;stroke:none"
                 id="use31"
                 x="0"
                 y="0"
                 width="100%"
                 height="100%" />
            </g>
          </defs>
          <use
             xlink:href="#9"
             id="use36"
             x="0"
             y="0"
             width="100%"
             height="100%" />
          <defs
             id="defs46">
            <title
               id="title38">Shape 5</title>
            <g
               id="11">
              <defs
                 id="defs41">
                <path
                   id="12"
                   d="m 3799.58,922.658 c -21.12,-12.697 -71.4,-46.702 -97.24,-52.311 -30.23,-6.562 -66.83,27.896 -91.82,35.128 -9.04,2.616 -22.53,-4.89 -31.13,-6.756 -17.3,-3.754 -37.92,4.944 -54.47,1.351 -24.95,-5.416 -11.09,-48.049 -31.12,-56.744 -13.7,-5.943 -17.68,22.049 -31.13,16.212 -16.05,-6.967 -15.25,-34.045 -38.91,-39.181 -3.1,-0.672 -7.73,0 -10.89,0 -2.55,0 -5.94,2.45 -7.78,4.054 -28.48,24.721 -48.83,12.947 -63.81,21.617 -2.16,1.249 -4.39,2.46 -6.23,4.053 -25.72,22.332 -30.76,50.506 -63.81,64.851 -1.03,0 -2.07,0 -3.11,0 -5.75,0 -16.69,-56.255 -62.25,-36.479 -11.5,4.992 -22.24,31.86 -28.02,41.883 -18.09,31.421 -68.48,33.784 -94.93,56.745 -5.36,4.656 -19.96,21.735 -29.57,17.564 -23.7,-10.286 -36.86,-51.91 -65.37,-58.096 -22.51,-4.885 -45.75,41.561 -76.25,25.67 -13.09,-6.816 -20.61,-22.689 -32.69,-31.074 -17.22,-11.963 -45.14,-16.223 -60.69,-29.724 -14.08,-12.217 -10.66,-34.542 -28.02,-44.585 -26.2,-15.166 -73.06,16.27 -98.04,0 -12.08,-7.859 -22.43,-38.916 -32.69,-41.883 -26.29,-7.609 -53.28,53.382 -77.81,39.181 -16,-9.259 -11.69,-29.064 -24.9,-40.532 -24,-20.83 -55.37,-27.294 -76.26,-52.691 -13.67,-16.615 -17.16,-41.914 -34.24,-56.745 -20.44,-17.742 -46.46,-4.082 -68.48,-27.021 -34.73,-36.183 -58.1,-78.814 -96.49,-112.139 -16.49,-14.313 -26.37,-31.499 -48.25,-37.83 -16.07,-4.65 -81.54,60.406 -99.6,71.607 -5.44,3.376 -4.25,3.218 -9.34,6.755 -12.93,8.983 -4.75,-16.454 -17.12,-12.16 -1.53,0.531 -10.52,6.471 -10.89,6.756 -62.08,47.152 -86.21,154.548 -152.52,212.117 -23.55,20.448 -118.86,-78.574 -132.29,-75.66 -6.79,1.475 -12.63,8.185 -18.67,10.809 -14.4,6.249 -31.89,0.761 -46.69,8.106 -40.37,20.025 -65.1,60.567 -94.94,86.468 -10.14,8.808 -22.26,4.157 -34.24,6.755 -33.84,7.345 -65.79,27.907 -99.6,33.777 -19.67,3.415 -36.25,-11.287 -56.03,-2.702 -15.84,6.876 -29.56,21.954 -46.69,25.67 -11.4,2.475 -11.8,-6.802 -14,-13.51 -25.1,-76.25 -73.69,-23.205 -119.84,-43.235 -16.97,-7.368 -66.25,-58.79 -93.38,-63.499 -21.82,-3.788 -47.5,28.018 -65.36,20.265 -18.18,-7.888 -14.76,-63.337 -51.36,-55.393 -43.59,9.461 -65.26,71.583 -108.943,81.064 -18.917,4.105 -23.211,-10.164 -31.126,-21.617 -16.711,-24.178 -64.759,-20.465 -85.598,-44.585 -14.682,-16.996 -20.329,-38.232 -40.464,-51.341 -44.823,-29.184 -58.052,-14.084 -104.272,-4.053 -15.357,3.333 -31.911,-8.106 -48.246,-8.106 -10.353,0 -23.391,5.841 -34.239,2.702 -18.986,-5.494 -22.222,-36.235 -48.246,-41.883 -18.681,-4.055 -37.49,39.374 -45.133,49.989 -11.654,16.188 -67.519,40.791 -88.709,49.989 -40.092,17.403 -70.485,-4.131 -101.161,-9.457 -27.557,-4.785 -52.57,14.787 -77.815,20.266 -11.056,2.399 -14.078,-8.091 -26.458,-5.404 -19.572,4.247 -69.821,61.672 -93.378,77.01 C 118.44,856.651 98.5857,841.9 77.6918,852.783 6.71636,889.752 8.51323,838.265 -25.0246,777.123 -40.6316,748.671 -117.082,1502.46 -125.912,1471.8 c -11.086,-38.5 -15.653,-111.36 -10.894,-152.67 12.917,-112.13 57.8131,1237.62 167.6402,1217.01 136.6228,-25.64 364.1998,9.73 502.2288,-8.55 83.228,-11.02 165.6,-26.3 249.01,-36.48 478.067,-58.36 956.617,-50.57 1438.027,-43.23 99.12,1.51 198.22,0.44 297.26,5.4 123.33,6.18 246.99,17.57 370.4,21.62 189.38,6.2 377.69,6.58 566.5,22.97 91.74,7.96 187.51,12.37 275.47,37.83 29.94,8.66 57.21,26.62 68.47,52.69 8.05,18.61 2.42,42.61 4.67,62.15 2.52,21.85 221.12,-1090.76 224.68,-1069.13 13.73,83.46 -163.77,-870.417 -197.59,-792.129 -13.26,30.683 3.07,61.844 -8.72,92.549 -3.27,8.494 -10.77,40.827 -21.66,40.827 z" />
              </defs>
              <use
                 xlink:href="#12"
                 style="opacity:1;fill:#023b4d;fill-opacity:1;fill-rule:evenodd;stroke:none"
                 id="use43"
                 x="0"
                 y="0"
                 width="100%"
                 height="100%" />
            </g>
          </defs>
          <use
             xlink:href="#11"
             id="use48"
             x="0"
             y="0"
             width="100%"
             height="100%" />
        </g>
        <defs
           id="defs59">
          <title
             id="title51">Shape 6</title>
          <g
             id="13">
            <defs
               id="defs54">
              <path
                 id="14"
                 d="m 3809.38,931.154 c -21.13,-12.697 -71.4,-46.702 -97.25,-52.311 -30.23,-6.562 -66.83,27.896 -91.82,35.128 -9.04,2.616 -22.53,-4.89 -31.13,-6.756 -17.29,-3.754 -37.91,4.944 -54.47,1.351 -24.95,-5.416 -11.09,-48.049 -31.12,-56.745 -13.69,-5.943 -17.68,22.05 -31.13,16.213 -16.05,-6.967 -15.24,-34.045 -38.91,-39.181 -3.1,-0.672 -7.73,0 -10.89,0 -2.55,0 -5.94,2.45 -7.78,4.053 -28.48,24.722 -48.83,12.948 -63.81,21.617 -2.16,1.25 -4.39,2.461 -6.23,4.054 -25.72,22.332 -30.76,50.506 -63.81,64.851 -1.03,0 -2.07,0 -3.11,0 -5.75,0 -16.69,-56.255 -62.25,-36.479 -11.5,4.992 -22.24,31.86 -28.01,41.883 -18.1,31.42 -68.49,33.784 -94.94,56.745 -5.36,4.656 -19.96,21.733 -29.57,17.563 -23.7,-10.285 -36.86,-51.909 -65.36,-58.095 -22.51,-4.885 -45.76,41.561 -76.26,25.67 -13.09,-6.817 -20.61,-22.69 -32.69,-31.074 -17.22,-11.964 -45.14,-16.223 -60.69,-29.724 -14.07,-12.217 -10.66,-34.542 -28.02,-44.585 -26.2,-15.166 -73.05,16.27 -98.04,0 -12.07,-7.859 -22.43,-38.916 -32.69,-41.883 -26.29,-7.609 -53.27,53.382 -77.81,39.181 -16,-9.259 -11.69,-29.064 -24.9,-40.532 -24,-20.83 -55.36,-27.294 -76.26,-52.692 -13.67,-16.614 -17.16,-41.913 -34.24,-56.744 -20.44,-17.742 -46.46,-4.082 -68.48,-27.021 -34.73,-36.183 -58.1,-78.814 -96.49,-112.139 -16.49,-14.313 -26.37,-31.499 -48.24,-37.83 -16.08,-4.65 -81.55,60.406 -99.61,71.607 -5.44,3.375 -4.24,3.218 -9.34,6.755 -12.93,8.983 -4.75,-16.454 -17.12,-12.16 -1.53,0.531 -10.52,6.471 -10.89,6.756 -62.07,47.152 -86.2,154.548 -152.52,212.117 -23.55,20.448 -118.86,-78.574 -132.28,-75.66 -6.8,1.475 -12.63,8.184 -18.68,10.809 -14.4,6.249 -31.88,0.761 -46.69,8.106 -40.37,20.025 -65.1,60.567 -94.94,86.468 -10.14,8.808 -22.26,4.157 -34.23,6.756 -33.85,7.344 -65.8,27.906 -99.61,33.776 -19.67,3.415 -36.25,-11.287 -56.03,-2.702 -15.84,6.876 -29.56,21.953 -46.68,25.67 -11.41,2.475 -11.8,-6.802 -14.01,-13.51 -25.1,-76.25 -73.69,-23.205 -119.84,-43.234 -16.97,-7.369 -66.25,-58.791 -93.38,-63.5 -21.81,-3.789 -47.5,28.018 -65.36,20.265 -18.17,-7.888 -14.76,-63.337 -51.36,-55.393 -43.59,9.461 -65.26,71.583 -108.941,81.064 -18.917,4.105 -23.21,-10.164 -31.126,-21.618 -16.711,-24.177 -64.758,-20.464 -85.597,-44.585 -14.683,-16.995 -20.33,-38.231 -40.464,-51.34 -44.824,-29.184 -58.053,-14.085 -104.274,-4.053 -15.356,3.333 -31.909,-8.107 -48.245,-8.107 -10.352,0 -23.391,5.842 -34.239,2.702 -18.986,-5.494 -22.222,-36.234 -48.246,-41.882 -18.682,-4.055 -37.49,39.373 -45.133,49.989 -11.654,16.188 -67.519,40.791 -88.709,49.989 -40.092,17.403 -70.485,-4.131 -101.161,-9.457 -27.557,-4.785 -52.57,14.787 -77.815,20.266 -11.056,2.399 -14.078,-8.091 -26.457,-5.404 -19.573,4.247 -69.821,61.672 -93.379,77.01 -18.392,11.975 -38.246,-2.776 -59.1399,8.107 -70.9755,36.969 -69.1786,-14.519 -102.7167,-75.66 -15.6069,-28.452 -92.0574,725.331 -100.8864,694.671 -11.087,-38.49 -15.653,-111.35 -10.895,-152.67 12.917,-112.13 57.8133,1237.63 167.6402,1217.02 136.6228,-25.65 364.1998,9.72 502.2288,-8.55 83.228,-11.03 165.6,-26.3 249.01,-36.48 478.065,-58.37 956.625,-50.57 1438.035,-43.24 99.11,1.51 198.21,0.45 297.25,5.41 123.33,6.17 247,17.57 370.41,21.61 189.38,6.21 377.68,6.58 566.49,22.97 91.74,7.97 187.51,12.38 275.47,37.83 29.95,8.67 57.22,26.63 68.48,52.69 8.04,18.62 2.42,42.62 4.67,62.15 2.51,21.86 221.11,-1090.75 224.67,-1069.12 13.74,83.45 -163.77,-870.421 -197.59,-792.133 -13.25,30.683 3.07,61.844 -8.72,92.548 -3.26,8.495 -10.77,40.827 -21.65,40.827 z" />
            </defs>
            <use
               xlink:href="#14"
               style="opacity:1;fill:#004f62;fill-opacity:1;fill-rule:evenodd;stroke:none"
               id="use56"
               x="0"
               y="0"
               width="100%"
               height="100%" />
          </g>
        </defs>
        <use
           xlink:href="#13"
           id="use61"
           x="0"
           y="0"
           width="100%"
           height="100%" />
        <g
           id="15">
          <title
             id="title63">Group</title>
          <defs
             id="defs73">
            <title
               id="title65">Shape 7</title>
            <g
               id="16">
              <defs
                 id="defs68">
                <path
                   id="17"
                   d="m 3850.39,827.57 c -48.96,-1.773 -82.42,-40.205 -98.04,-40.205 -6.5,0 -27.89,27.5 -33.4,31.447 -17.55,12.577 -41.86,1.728 -63.62,5.469 -23.8,4.092 -39.93,31.807 -60.43,42.384 -25.84,13.328 -61.77,13.067 -84.3,25.978 -11.09,6.355 -15.47,20.138 -23.85,27.345 -0.62,0.533 -5.39,0 -6.36,0 -34.43,0 -71.22,-6.99 -103.38,6.836 -11.16,4.797 -18.26,14.684 -28.63,19.141 -15.2,6.533 -30.64,-8.797 -46.12,-5.469 -47.56,10.22 -68.13,64.904 -120.88,72.464 -2.82,0.41 -92.36,-6.89 -95.42,-8.2 -26.77,-11.51 -38.01,-70.793 -74.75,-62.896 -36.29,7.797 -52.37,60.106 -87.48,75.196 -7.95,3.42 -4.77,-16.75 -19.08,-13.67 -24.28,5.22 -47.83,19.17 -71.57,25.98 -16.87,4.83 -32.54,-11.07 -47.72,-13.68 -26.74,-4.59 -54.93,-4.45 -81.11,-8.2 -20.67,-2.96 -41.54,6.88 -60.44,10.94 -1.61,0.35 -9.19,3.03 -11.13,1.37 -15.59,-13.41 -33.04,-27.287 -57.26,-31.45 -26.18,-4.502 -54.88,30.36 -77.93,38.28 -37.65,12.95 -70.61,1.3 -108.15,-2.73 -23.57,-2.53 -50.2,7.65 -73.16,10.94 -14.69,2.1 -21.9,-8.13 -34.99,-10.94 -30.95,-6.65 -67.45,-2.33 -97.02,-15.04 -20.74,-8.918 -74.49,-45.193 -98.6,-38.284 -8.74,2.505 -13.13,14.023 -19.09,19.141 -12.47,10.713 -33.5,15.133 -44.53,24.613 -2.38,2.04 0.04,17.45 -4.77,23.24 -27.78,33.44 -78.42,93.39 -111.33,121.69 -2.19,1.88 -5.12,-2.2 -6.36,-2.74 -16.11,-6.92 -37.43,-5.83 -52.49,-12.3 -13.58,-5.84 -16.53,-19.32 -34.99,-24.61 -24.21,-6.94 -55.24,-5.54 -76.34,-19.15 -20.81,-13.41 -30.3,-38.6 -63.62,-31.44 -16.73,3.59 -29.78,25.79 -46.12,32.81 -69.21,29.75 -144.47,45.69 -213.12,75.2 -23.25,9.99 -38.61,32.91 -63.62,38.28 -13.73,2.95 -109.57,11.7 -114.51,9.57 -10.55,-4.53 -5.16,-24.4 -22.27,-27.34 -26.34,-4.53 -50.55,19.41 -74.75,24.61 -13.25,2.85 -66.3,-24.18 -74.75,-31.45 -6.88,-5.91 -37.27,-0.41 -39.76,-6.83 -3.36,-8.68 6.86,-29.94 -7.95,-34.18 -20.898,-5.99 -48.265,3.3 -69.981,-1.37 -41.918,-9.01 -69.186,-44.78 -104.969,-60.16 -20.738,-8.91 -46.721,-3.46 -66.799,-16.41 -14.549,-9.38 -24.355,-23.5 -39.761,-31.44 -23.528,-12.14 -54.954,-12.76 -77.932,-24.61 -23.271,-12.01 -46.068,-33.62 -71.57,-42.389 -25.67,-8.827 -54.621,-3.016 -77.931,-15.04 C 472.87,941.05 440.052,920.713 409.24,900.847 396.733,892.783 389.568,880.583 375.84,873.502 350.688,860.528 321.26,856.287 296.318,843.422 243.363,816.108 99.9089,692.169 38.6662,705.331 c -8.0436,1.728 -23.0028,7.469 -28.6279,12.305 -12.51361,10.757 -87.8249,309.894 -92.2457,334.974 -17.411,98.79 -48.4576,196.3 -52.4846,296.69 -2.757,68.75 14.314,135.63 14.314,203.72 0,64.14 -17.413,126.91 -12.724,191.42 4.35,59.83 16.976,117.47 11.134,177.74 -4.257,43.91 -35.393,273.1 0,303.53 18.764,16.13 325.108,-20.51 372.163,-20.51 279.609,0 560.253,7.76 839.755,17.77 107.44,3.85 215.39,-3.08 322.86,0 109.82,3.15 219.35,13.63 329.22,16.41 219.2,5.54 437.9,-3.12 656.86,-8.2 121.52,-2.83 244.31,6.67 365.8,9.57 226.66,5.41 452.97,7.47 679.11,21.87 65.93,4.2 348.73,29.72 402.39,-16.4 57.76,-49.66 -6.53,-243 4.77,-315.84 14.9,-96.07 24.13,-195.53 17.49,-292.59 -5.94,-86.91 -11.59,-174.26 1.59,-261.14 6.76,-44.51 9.75,-89.58 17.5,-133.99 13.27,-76.06 58.75,-193.44 47.71,-269.348 -2.87,-19.776 -5.03,-42.301 -17.49,-60.159 -11.8,-16.906 -67.37,-72.882 -67.37,-85.581 z" />
              </defs>
              <use
                 xlink:href="#17"
                 style="opacity:1;fill:#005b70;fill-opacity:1;fill-rule:evenodd;stroke:none"
                 id="use70"
                 x="0"
                 y="0"
                 width="100%"
                 height="100%" />
            </g>
          </defs>
          <use
             xlink:href="#16"
             id="use75"
             x="0"
             y="0"
             width="100%"
             height="100%" />
          <defs
             id="defs85">
            <title
               id="title77">Shape 8</title>
            <g
               id="18">
              <defs
                 id="defs80">
                <path
                   id="19"
                   d="m 3850.39,827.57 c -48.96,-1.773 -82.42,-40.205 -98.04,-40.205 -6.5,0 -27.89,27.5 -33.4,31.447 -17.55,12.577 -41.86,1.728 -63.62,5.469 -23.8,4.092 -39.93,31.807 -60.43,42.384 -25.84,13.328 -61.77,13.067 -84.3,25.978 -11.09,6.355 -15.47,20.138 -23.85,27.345 -0.62,0.533 -5.39,0 -6.36,0 -34.43,0 -71.22,-6.99 -103.38,6.836 -11.16,4.797 -18.26,14.684 -28.63,19.141 -15.2,6.533 -30.64,-8.797 -46.12,-5.469 -47.56,10.22 -68.13,64.904 -120.88,72.464 -2.82,0.41 -92.36,-6.89 -95.42,-8.2 -26.77,-11.51 -38.01,-70.793 -74.75,-62.896 -36.29,7.797 -52.37,60.106 -87.48,75.196 -7.95,3.42 -4.77,-16.75 -19.08,-13.67 -24.28,5.22 -47.83,19.17 -71.57,25.98 -16.87,4.83 -32.54,-11.07 -47.72,-13.68 -26.74,-4.59 -54.93,-4.45 -81.11,-8.2 -20.67,-2.96 -41.54,6.88 -60.44,10.94 -1.61,0.35 -9.19,3.03 -11.13,1.37 -15.59,-13.41 -33.04,-27.287 -57.26,-31.45 -26.18,-4.502 -54.88,30.36 -77.93,38.28 -37.65,12.95 -70.61,1.3 -108.15,-2.73 -23.57,-2.53 -50.2,7.65 -73.16,10.94 -14.69,2.1 -21.9,-8.13 -34.99,-10.94 -30.95,-6.65 -67.45,-2.33 -97.02,-15.04 -20.74,-8.918 -74.49,-45.193 -98.6,-38.284 -8.74,2.505 -13.13,14.023 -19.09,19.141 -12.47,10.713 -33.5,15.133 -44.53,24.613 -2.38,2.04 0.04,17.45 -4.77,23.24 -27.78,33.44 -78.42,93.39 -111.33,121.69 -2.19,1.88 -5.12,-2.2 -6.36,-2.74 -16.11,-6.92 -37.43,-5.83 -52.49,-12.3 -13.58,-5.84 -16.53,-19.32 -34.99,-24.61 -24.21,-6.94 -55.24,-5.54 -76.34,-19.15 -20.81,-13.41 -30.3,-38.6 -63.62,-31.44 -16.73,3.59 -29.78,25.79 -46.12,32.81 -69.21,29.75 -144.47,45.69 -213.12,75.2 -23.25,9.99 -38.61,32.91 -63.62,38.28 -13.73,2.95 -109.57,11.7 -114.51,9.57 -10.55,-4.53 -5.16,-24.4 -22.27,-27.34 -26.34,-4.53 -50.55,19.41 -74.75,24.61 -13.25,2.85 -66.3,-24.18 -74.75,-31.45 -6.88,-5.91 -37.27,-0.41 -39.76,-6.83 -3.36,-8.68 6.86,-29.94 -7.95,-34.18 -20.898,-5.99 -48.265,3.3 -69.981,-1.37 -41.918,-9.01 -69.186,-44.78 -104.969,-60.16 -20.738,-8.91 -46.721,-3.46 -66.799,-16.41 -14.549,-9.38 -24.355,-23.5 -39.761,-31.44 -23.528,-12.14 -54.954,-12.76 -77.932,-24.61 -23.271,-12.01 -46.068,-33.62 -71.57,-42.389 -25.67,-8.827 -54.621,-3.016 -77.931,-15.04 C 472.87,941.05 440.052,920.713 409.24,900.847 396.733,892.783 389.568,880.583 375.84,873.502 350.688,860.528 321.26,856.287 296.318,843.422 243.363,816.108 99.9089,692.169 38.6662,705.331 c -8.0436,1.728 -23.0028,7.469 -28.6279,12.305 -12.51361,10.757 -87.8249,309.894 -92.2457,334.974 -17.411,98.79 -48.4576,196.3 -52.4846,296.69 -2.757,68.75 14.314,135.63 14.314,203.72 0,64.14 -17.413,126.91 -12.724,191.42 4.35,59.83 16.976,117.47 11.134,177.74 -4.257,43.91 -35.393,273.1 0,303.53 18.764,16.13 325.108,-20.51 372.163,-20.51 279.609,0 560.253,7.76 839.755,17.77 107.44,3.85 215.39,-3.08 322.86,0 109.82,3.15 219.35,13.63 329.22,16.41 219.2,5.54 437.9,-3.12 656.86,-8.2 121.52,-2.83 244.31,6.67 365.8,9.57 226.66,5.41 452.97,7.47 679.11,21.87 65.93,4.2 348.73,29.72 402.39,-16.4 57.76,-49.66 -6.53,-243 4.77,-315.84 14.9,-96.07 24.13,-195.53 17.49,-292.59 -5.94,-86.91 -11.59,-174.26 1.59,-261.14 6.76,-44.51 9.75,-89.58 17.5,-133.99 13.27,-76.06 58.75,-193.44 47.71,-269.348 -2.87,-19.776 -5.03,-42.301 -17.49,-60.159 -11.8,-16.906 -67.37,-72.882 -67.37,-85.581 z" />
              </defs>
              <use
                 xlink:href="#19"
                 style="opacity:1;fill:#005b70;fill-opacity:1;fill-rule:evenodd;stroke:none"
                 id="use82"
                 x="0"
                 y="0"
                 width="100%"
                 height="100%" />
            </g>
          </defs>
          <use
             xlink:href="#18"
             id="use87"
             x="0"
             y="0"
             width="100%"
             height="100%" />
        </g>
        <defs
           id="defs98">
          <title
             id="title90">Shape 9</title>
          <g
             id="20">
            <defs
               id="defs93">
              <path
                 id="21"
                 d="m 3869.95,836.066 c -49.08,-1.773 -82.62,-40.205 -98.28,-40.205 -6.51,0 -27.95,27.5 -33.48,31.447 -17.6,12.577 -41.96,1.728 -63.77,5.468 -23.86,4.093 -40.03,31.808 -60.58,42.385 -25.9,13.328 -61.92,13.067 -84.5,25.978 -11.12,6.355 -15.51,20.137 -23.91,27.345 -0.63,0.532 -5.41,0 -6.38,0 -34.51,0 -71.39,-6.99 -103.63,6.836 -11.19,4.797 -18.3,14.684 -28.7,19.141 -15.23,6.533 -30.71,-8.797 -46.23,-5.469 -47.67,10.22 -68.3,64.908 -121.17,72.468 -2.83,0.4 -92.59,-6.89 -95.66,-8.21 -26.83,-11.5 -38.1,-70.787 -74.93,-62.891 -36.37,7.798 -52.49,60.111 -87.69,75.201 -7.97,3.42 -4.78,-16.75 -19.13,-13.67 -24.34,5.21 -47.94,19.17 -71.74,25.97 -16.91,4.84 -32.62,-11.06 -47.83,-13.67 -26.81,-4.6 -55.06,-4.45 -81.31,-8.2 -20.72,-2.96 -41.64,6.87 -60.58,10.94 -1.62,0.34 -9.22,3.03 -11.16,1.36 -15.63,-13.4 -33.12,-27.28 -57.4,-31.444 -26.24,-4.502 -55.02,30.354 -78.12,38.284 -37.74,12.95 -70.78,1.3 -108.41,-2.74 -23.62,-2.53 -50.33,7.65 -73.34,10.94 -14.73,2.11 -21.95,-8.12 -35.07,-10.94 -31.03,-6.65 -67.61,-2.33 -97.25,-15.04 -20.8,-8.91 -74.68,-45.187 -98.85,-38.278 -8.76,2.505 -13.16,14.023 -19.13,19.141 -12.5,10.717 -33.59,15.127 -44.64,24.607 -2.39,2.05 0.03,17.46 -4.79,23.25 -27.85,33.43 -78.6,93.39 -111.6,121.68 -2.19,1.88 -5.13,-2.2 -6.37,-2.73 -16.15,-6.92 -37.52,-5.84 -52.62,-12.31 -13.61,-5.83 -16.56,-19.32 -35.07,-24.61 -24.27,-6.94 -55.38,-5.54 -76.53,-19.14 -20.85,-13.42 -30.37,-38.61 -63.77,-31.45 -16.77,3.6 -29.86,25.8 -46.23,32.82 -69.38,29.75 -144.82,45.69 -213.64,75.2 -23.3,9.99 -38.7,32.9 -63.77,38.28 -13.77,2.95 -109.84,11.69 -114.79,9.57 -10.58,-4.54 -5.17,-24.4 -22.32,-27.35 -26.41,-4.53 -50.68,19.42 -74.93,24.62 -13.29,2.84 -66.46,-24.19 -74.94,-31.45 -6.89,-5.91 -37.36,-0.42 -39.85,-6.84 -3.38,-8.68 6.87,-29.94 -7.97,-34.18 -20.95,-5.99 -48.385,3.3 -70.154,-1.37 -42.019,-9 -69.354,-44.77 -105.223,-60.15 -20.788,-8.92 -46.834,-3.47 -66.961,-16.41 -14.584,-9.38 -24.415,-23.5 -39.857,-31.45 -23.586,-12.13 -55.087,-12.76 -78.121,-24.61 -23.328,-12 -46.18,-33.614 -71.744,-42.383 -25.732,-8.827 -54.753,-3.016 -78.12,-15.04 -33.468,-17.221 -66.365,-37.558 -97.252,-57.424 -12.537,-8.064 -19.72,-20.264 -33.481,-27.345 -25.213,-12.974 -54.713,-17.215 -79.715,-30.08 C 254.178,824.604 110.377,700.665 48.9864,713.827 c -8.0633,1.728 -23.0587,7.469 -28.6975,12.305 -12.54386,10.757 -88.0378,309.888 -92.4694,334.978 -17.4533,98.78 -48.5755,196.29 -52.6115,296.69 -2.764,68.74 14.348,135.62 14.348,203.72 0,64.13 -17.455,126.91 -12.754,191.41 4.361,59.84 17.017,117.47 11.16,177.75 -4.267,43.91 -35.478,273.1 0,303.52 18.81,16.13 325.896,-20.51 373.066,-20.51 280.288,0 561.612,7.77 841.792,17.78 107.69,3.85 215.91,-3.08 323.64,0 110.09,3.15 219.88,13.63 330.02,16.41 219.73,5.54 438.96,-3.12 658.44,-8.21 121.82,-2.82 244.91,6.67 366.69,9.57 227.21,5.42 454.08,7.48 680.77,21.88 66.09,4.2 349.57,29.72 403.36,-16.41 57.9,-49.66 -6.54,-243 4.78,-315.83 14.94,-96.08 24.19,-195.53 17.54,-292.59 -5.96,-86.91 -11.62,-174.26 1.59,-261.15 6.77,-44.51 9.77,-89.58 17.54,-133.99 13.3,-76.06 58.89,-193.43 47.83,-269.343 -2.89,-19.776 -5.05,-42.301 -17.54,-60.159 -11.83,-16.906 -67.53,-72.882 -67.53,-85.581 z" />
            </defs>
            <use
               xlink:href="#21"
               style="opacity:1;fill:#00697e;fill-opacity:1;fill-rule:evenodd;stroke:none"
               id="use95"
               x="0"
               y="0"
               width="100%"
               height="100%" />
          </g>
        </defs>
        <use
           xlink:href="#20"
           id="use100"
           x="0"
           y="0"
           width="100%"
           height="100%" />
        <g
           id="22">
          <title
             id="title102">Group</title>
          <defs
             id="defs112">
            <title
               id="title104">Shape 10</title>
            <g
               id="23">
              <defs
                 id="defs107">
                <path
                   id="24"
                   d="m 3850.37,930.23 c -29.28,-2.286 -53.41,-6.867 -80.35,-14.48 -5.72,-1.616 -11.94,-8.526 -19.24,-5.435 -18.05,7.649 -23.32,32.409 -43.28,38.048 -16.99,4.801 -37.71,-2.027 -54.5,2.717 -19.97,5.642 -32.38,25.002 -49.69,29.895 -16.78,4.741 -43.87,1.605 -59.32,8.153 -13.02,5.522 -15.98,18.992 -24.04,25.822 -7,5.93 -25.37,-1.76 -33.66,0 -12.43,2.63 -17.58,13.54 -24.05,19.02 -1.8,1.53 -16.76,0.66 -19.24,1.36 -23.48,6.64 -27.74,36.22 -48.09,44.84 -15.97,6.77 -22.35,-5.51 -46.48,14.95 -3.35,2.83 -16.45,-1.86 -20.84,0 -49.87,21.13 -77.24,-17.73 -121.83,-27.18 -28.14,-5.96 -50.28,25.7 -81.76,19.03 -19.11,-4.05 -34.93,-17.39 -48.09,-28.54 -22.35,-18.95 -98.28,7.39 -120.22,13.59 -22.09,6.24 -46.82,68.22 -68.93,86.97 -13,11.01 -35.67,8.49 -44.89,16.3 -20.78,17.61 -56.18,36.04 -83.35,47.56 -6.61,2.8 -14.2,-4.17 -20.84,-1.36 -26.22,11.11 -51.29,45.52 -81.76,58.43 -6.81,2.89 -16.38,-2.98 -24.04,-1.36 -29.36,6.22 -60.36,33.68 -92.98,24.46 -14.91,-4.21 -19.73,-23.41 -40.07,-17.66 -10.42,2.94 -33.77,12.86 -44.89,8.15 -47.68,-20.21 -43.84,-36.91 -96.18,-25.82 -11.41,2.42 -25.72,-0.43 -36.87,2.72 -28.33,8.01 -76.43,24.55 -99.38,40.77 -10.37,7.32 -20.52,20.92 -32.07,25.81 -5.03,2.14 -13.94,-0.43 -19.23,1.36 -25.5,8.65 -56.59,28.95 -73.74,43.49 -0.38,0.32 -1.07,0 -1.6,0 -25.11,0 -43.79,3.3 -64.12,17.66 -17.19,12.15 -20.54,34.71 -38.48,44.84 -12.07,6.83 -32.89,12.29 -40.07,24.46 -12.87,21.82 -25.65,42.16 -25.65,73.38 0,2.29 0.95,5.35 -1.6,6.8 -19.97,11.28 -57.93,3.68 -78.55,9.51 -14.22,4.02 -39.19,10.21 -51.28,17.89 -12.39,7.88 -22.74,10.96 -36.89,13.36 -42.87,7.27 -61.09,40.13 -102.59,48.92 -27.86,5.91 -51.49,-21.66 -76.94,-10.87 -45.92,19.46 -75.72,66.38 -102.6,100.56 -6.67,8.48 -17.04,0.43 -25.65,4.07 -28.32,12.01 -50.74,40.21 -78.54,54.36 -17.65,8.97 -36.27,-4.45 -54.51,-1.36 -38.21,6.48 -75.58,16.34 -113.81,21.74 -15.05,2.12 -60.63,31.53 -97.78,39.41 -18.38,3.89 -21.38,-16.2 -40.08,-12.23 -48.93,10.36 -128.611,86.61 -187.553,103.27 -52.018,14.7 -95.659,-30.04 -105.799,-27.18 -22.033,6.23 -39.419,34.17 -64.121,39.41 -24.141,5.11 -33.309,-28.61 -59.311,-23.1 -24.231,5.13 -39.687,29.81 -65.724,35.33 -22.675,4.8 -44.885,3.17 -67.327,9.51 -18.056,5.1 -39.327,-8.03 -56.105,-10.87 -25.024,-4.24 -52.555,8.7 -78.548,1.36 -8.405,-2.38 -13.014,-10.49 -24.045,-8.16 -18.758,3.98 -36.919,19.74 -51.297,29.9 -31.254,22.08 -85.196,5.67 -118.623,0 -29.131,-4.94 -40.456,20.51 -64.121,28.54 -12.29,4.16 -28.3194,-2.63 -40.0751,1.35 -20.6026,6.99 -32.4773,29.11 -54.5026,35.33 -12.6094,3.57 -16.321,-16.18 -32.0604,-9.51 -58.4393,24.77 -52.2787,64.26 -59.3114,105.99 -1.2869,7.64 -6.4138,20.38 -3.2062,28.54 18.2849,46.5 372.7107,59.11 432.8137,69.3 166.876,28.29 331.159,40.68 501.744,31.25 110.338,-6.1 219.492,-19.6 330.222,-21.74 208.17,-4.01 415.61,4.88 623.57,9.51 122.92,2.75 245.61,9.12 368.69,6.8 152.24,-2.87 304.61,-7.23 456.86,-1.36 109.6,4.22 218.94,10.21 328.62,12.23 185.72,3.42 372.44,-5.04 557.85,5.44 30.99,1.75 300.4,27.27 317.4,17.66 12.62,-7.13 13.78,-25.81 17.63,-36.69 12.35,-34.89 32.92,-66.47 36.87,-103.27 5.4,-50.32 -23.45,-169.12 -30.46,-225.57 -8.08,-65.11 -24.07,-134.21 -19.23,-199.75 3.75,-50.87 11.22,-101.07 11.22,-152.19 0,-74.84 -8.38,-151.03 -3.21,-225.57 3.32,-47.8 5.29,-96.33 9.62,-144.04 5.32,-58.69 22.87,-125.56 11.22,-184.81 -5.29,-26.91 -35.07,-89.983 -35.07,-101.019 z" />
              </defs>
              <use
                 xlink:href="#24"
                 style="opacity:1;fill:#508e9a;fill-opacity:1;fill-rule:evenodd;stroke:none"
                 id="use109"
                 x="0"
                 y="0"
                 width="100%"
                 height="100%" />
            </g>
          </defs>
          <use
             xlink:href="#23"
             id="use114"
             x="0"
             y="0"
             width="100%"
             height="100%" />
          <defs
             id="defs124">
            <title
               id="title116">Shape 11</title>
            <g
               id="25">
              <defs
                 id="defs119">
                <path
                   id="26"
                   d="m 3850.37,930.23 c -29.28,-2.286 -53.41,-6.867 -80.35,-14.48 -5.72,-1.616 -11.94,-8.526 -19.24,-5.435 -18.05,7.649 -23.32,32.409 -43.28,38.048 -16.99,4.801 -37.71,-2.027 -54.5,2.717 -19.97,5.642 -32.38,25.002 -49.69,29.895 -16.78,4.741 -43.87,1.605 -59.32,8.153 -13.02,5.522 -15.98,18.992 -24.04,25.822 -7,5.93 -25.37,-1.76 -33.66,0 -12.43,2.63 -17.58,13.54 -24.05,19.02 -1.8,1.53 -16.76,0.66 -19.24,1.36 -23.48,6.64 -27.74,36.22 -48.09,44.84 -15.97,6.77 -22.35,-5.51 -46.48,14.95 -3.35,2.83 -16.45,-1.86 -20.84,0 -49.87,21.13 -77.24,-17.73 -121.83,-27.18 -28.14,-5.96 -50.28,25.7 -81.76,19.03 -19.11,-4.05 -34.93,-17.39 -48.09,-28.54 -22.35,-18.95 -98.28,7.39 -120.22,13.59 -22.09,6.24 -46.82,68.22 -68.93,86.97 -13,11.01 -35.67,8.49 -44.89,16.3 -20.78,17.61 -56.18,36.04 -83.35,47.56 -6.61,2.8 -14.2,-4.17 -20.84,-1.36 -26.22,11.11 -51.29,45.52 -81.76,58.43 -6.81,2.89 -16.38,-2.98 -24.04,-1.36 -29.36,6.22 -60.36,33.68 -92.98,24.46 -14.91,-4.21 -19.73,-23.41 -40.07,-17.66 -10.42,2.94 -33.77,12.86 -44.89,8.15 -47.68,-20.21 -43.84,-36.91 -96.18,-25.82 -11.41,2.42 -25.72,-0.43 -36.87,2.72 -28.33,8.01 -76.43,24.55 -99.38,40.77 -10.37,7.32 -20.52,20.92 -32.07,25.81 -5.03,2.14 -13.94,-0.43 -19.23,1.36 -25.5,8.65 -56.59,28.95 -73.74,43.49 -0.38,0.32 -1.07,0 -1.6,0 -25.11,0 -43.79,3.3 -64.12,17.66 -17.19,12.15 -20.54,34.71 -38.48,44.84 -12.07,6.83 -32.89,12.29 -40.07,24.46 -12.87,21.82 -25.65,42.16 -25.65,73.38 0,2.29 0.95,5.35 -1.6,6.8 -19.97,11.28 -81.93,-13.12 -102.55,-7.29 -14.22,4.02 -15.19,27.01 -27.28,34.69 -12.39,7.88 -29.94,3.76 -44.09,6.16 -42.87,7.27 -53.89,47.33 -95.39,56.12 -27.86,5.91 -51.49,-21.66 -76.94,-10.87 -45.92,19.46 -75.72,66.38 -102.6,100.56 -6.67,8.48 -17.04,0.43 -25.65,4.07 -28.32,12.01 -50.74,40.21 -78.54,54.36 -17.65,8.97 -36.27,-4.45 -54.51,-1.36 -38.21,6.48 -75.58,16.34 -113.81,21.74 -15.05,2.12 -60.63,31.53 -97.78,39.41 -18.38,3.89 -21.38,-16.2 -40.08,-12.23 -48.93,10.36 -128.611,86.61 -187.553,103.27 -52.018,14.7 -95.659,-30.04 -105.799,-27.18 -22.033,6.23 -39.419,34.17 -64.121,39.41 -24.141,5.11 -33.309,-28.61 -59.311,-23.1 -24.231,5.13 -39.687,29.81 -65.724,35.33 -22.675,4.8 -44.885,3.17 -67.327,9.51 -18.056,5.1 -39.327,-8.03 -56.105,-10.87 -25.024,-4.24 -52.555,8.7 -78.548,1.36 -8.405,-2.38 -13.014,-10.49 -24.045,-8.16 -18.758,3.98 -36.919,19.74 -51.297,29.9 -31.254,22.08 -85.196,5.67 -118.623,0 -29.131,-4.94 -40.456,20.51 -64.121,28.54 -12.29,4.16 -28.3194,-2.63 -40.0751,1.35 -20.6026,6.99 -32.4773,29.11 -54.5026,35.33 -12.6094,3.57 -16.321,-16.18 -32.0604,-9.51 -58.4393,24.77 -52.2787,64.26 -59.3114,105.99 -1.2869,7.64 -6.4138,20.38 -3.2062,28.54 18.2849,46.5 372.7107,59.11 432.8137,69.3 166.876,28.29 331.159,40.68 501.744,31.25 110.338,-6.1 219.492,-19.6 330.222,-21.74 208.17,-4.01 415.61,4.88 623.57,9.51 122.92,2.75 245.61,9.12 368.69,6.8 152.24,-2.87 304.61,-7.23 456.86,-1.36 109.6,4.22 218.94,10.21 328.62,12.23 185.72,3.42 372.44,-5.04 557.85,5.44 30.99,1.75 300.4,27.27 317.4,17.66 12.62,-7.13 13.78,-25.81 17.63,-36.69 12.35,-34.89 32.92,-66.47 36.87,-103.27 5.4,-50.32 -23.45,-169.12 -30.46,-225.57 -8.08,-65.11 -24.07,-134.21 -19.23,-199.75 3.75,-50.87 11.22,-101.07 11.22,-152.19 0,-74.84 -8.38,-151.03 -3.21,-225.57 3.32,-47.8 5.29,-96.33 9.62,-144.04 5.32,-58.69 22.87,-125.56 11.22,-184.81 -5.29,-26.91 -35.07,-89.983 -35.07,-101.019 z" />
              </defs>
              <use
                 xlink:href="#26"
                 style="opacity:1;fill:#508e9a;fill-opacity:1;fill-rule:evenodd;stroke:none"
                 id="use121"
                 x="0"
                 y="0"
                 width="100%"
                 height="100%" />
            </g>
          </defs>
          <use
             xlink:href="#25"
             id="use126"
             x="0"
             y="0"
             width="100%"
             height="100%" />
        </g>
        <defs
           id="defs137">
          <title
             id="title129">Shape 12</title>
          <g
             id="27">
            <defs
               id="defs132">
              <path
                 id="28"
                 d="m 3880.39,930.23 c -29.28,-2.286 -53.41,-6.867 -80.35,-14.48 -5.72,-1.616 -11.94,-8.526 -19.23,-5.435 -18.05,7.649 -23.33,32.409 -43.28,38.048 -17,4.801 -37.72,-2.027 -54.51,2.717 -19.96,5.642 -32.37,25.002 -49.69,29.895 -16.78,4.741 -43.86,1.605 -59.31,8.153 -13.03,5.522 -15.99,18.992 -24.05,25.822 -7,5.93 -25.37,-1.76 -33.66,0 -12.42,2.63 -17.58,13.54 -24.05,19.02 -1.8,1.53 -16.76,0.66 -19.23,1.36 -23.49,6.64 -27.75,36.22 -48.09,44.84 -15.97,6.77 -22.35,-5.51 -46.49,14.95 -3.34,2.83 -16.44,-1.86 -20.84,0 -49.86,21.13 -77.23,-17.73 -121.83,-27.18 -28.14,-5.96 -50.28,25.7 -81.75,19.03 -19.12,-4.05 -34.94,-17.39 -48.09,-28.54 -22.36,-18.95 -98.28,7.39 -120.23,13.59 -22.09,6.24 -46.81,68.22 -68.93,86.97 -12.99,11.01 -35.66,8.49 -44.88,16.3 -20.78,17.61 -56.18,36.04 -83.36,47.56 -6.61,2.8 -14.2,-4.17 -20.84,-1.36 -26.22,11.11 -51.29,45.52 -81.75,58.43 -6.81,2.89 -16.38,-2.98 -24.05,-1.36 -29.35,6.22 -60.36,33.68 -92.97,24.46 -14.91,-4.21 -19.73,-23.41 -40.08,-17.66 -10.42,2.94 -33.76,12.86 -44.88,8.15 -47.69,-20.21 -43.85,-36.91 -96.18,-25.82 -11.42,2.42 -25.73,-0.43 -36.87,2.72 -28.34,8.01 -76.44,24.55 -99.39,40.77 -10.37,7.32 -20.52,20.92 -32.06,25.81 -5.04,2.14 -13.95,-0.43 -19.24,1.36 -25.5,8.65 -56.59,28.95 -73.74,43.49 -0.37,0.32 -1.07,0 -1.6,0 -25.11,0 -43.79,3.3 -64.12,17.66 -17.19,12.15 -20.54,34.71 -38.47,44.84 -12.08,6.83 -32.9,12.29 -40.08,24.46 -12.87,21.82 -25.65,42.16 -25.65,73.38 0,2.29 0.95,5.35 -1.6,6.8 -19.97,11.28 -81.93,-13.12 -102.55,-7.29 -14.22,4.02 -15.19,27.01 -27.28,34.69 -12.39,7.88 -29.94,3.76 -44.08,6.16 -42.88,7.27 -53.9,47.33 -95.4,56.12 -27.86,5.91 -51.48,-21.66 -76.94,-10.87 -45.91,19.46 -75.71,66.38 -102.59,100.56 -6.68,8.48 -17.05,0.43 -25.65,4.07 -28.32,12.01 -50.74,40.21 -78.55,54.36 -17.64,8.97 -36.27,-4.45 -54.5,-1.36 -38.22,6.48 -75.59,16.34 -113.82,21.74 -15.05,2.12 -60.63,31.53 -97.78,39.41 -18.38,3.89 -21.38,-16.2 -40.08,-12.23 -48.92,10.36 -128.607,86.61 -187.549,103.27 -52.018,14.7 -95.659,-30.04 -105.799,-27.18 -22.033,6.23 -39.419,34.17 -64.121,39.41 -24.142,5.11 -33.309,-28.61 -59.312,-23.1 -24.23,5.13 -39.687,29.81 -65.723,35.33 -22.676,4.8 -44.885,3.17 -67.327,9.51 -18.056,5.1 -39.327,-8.03 -56.106,-10.87 -25.023,-4.24 -52.554,8.7 -78.547,1.36 -8.405,-2.38 -13.015,-10.49 -24.046,-8.16 -18.758,3.98 -36.918,19.74 -51.296,29.9 -31.254,22.08 -85.197,5.67 -118.623,0 -29.131,-4.94 -40.456,20.51 -64.121,28.54 -12.29,4.16 -28.32,-2.63 -40.075,1.35 -20.6031,6.99 -32.4776,29.11 -54.5029,35.33 -12.6096,3.57 -16.321,-16.18 -32.0604,-9.51 -58.4393,24.77 -52.2787,64.26 -59.3117,105.99 -1.2866,7.64 -6.4135,20.38 -3.2059,28.54 18.2849,46.5 372.7099,59.11 432.8139,69.3 166.876,28.29 331.159,40.68 501.744,31.25 110.338,-6.1 219.488,-19.6 330.218,-21.74 208.18,-4.01 415.61,4.88 623.58,9.51 122.91,2.75 245.6,9.12 368.69,6.8 152.24,-2.87 304.6,-7.23 456.86,-1.36 109.59,4.22 218.94,10.21 328.61,12.23 185.72,3.42 372.45,-5.04 557.85,5.44 30.99,1.75 300.4,27.27 317.4,17.66 12.62,-7.13 13.79,-25.81 17.63,-36.69 12.35,-34.89 32.93,-66.47 36.87,-103.27 5.4,-50.32 -23.44,-169.12 -30.45,-225.57 -8.09,-65.11 -24.07,-134.21 -19.24,-199.75 3.75,-50.87 11.22,-101.07 11.22,-152.19 0,-74.84 -8.38,-151.03 -3.2,-225.57 3.31,-47.8 5.28,-96.33 9.61,-144.04 5.33,-58.69 22.87,-125.56 11.22,-184.81 -5.29,-26.91 -35.06,-89.983 -35.06,-101.019 z" />
            </defs>
            <use
               xlink:href="#28"
               style="opacity:1;fill:#5db1bc;fill-opacity:1;fill-rule:evenodd;stroke:none"
               id="use134"
               x="0"
               y="0"
               width="100%"
               height="100%" />
          </g>
        </defs>
        <use
           xlink:href="#27"
           id="use139"
           x="0"
           y="0"
           width="100%"
           height="100%" />
        <g
           id="29">
          <title
             id="title141">Group</title>
          <g
             id="30">
            <title
               id="title143">Group</title>
            <defs
               id="defs153">
              <title
                 id="title145">Shape 13</title>
              <g
                 id="31">
                <defs
                   id="defs148">
                  <path
                     id="32"
                     d="m 1636.19,1485 c -17.12,-21.95 -4.41,-74.1 11.8,-91.5 15.41,-16.53 33.17,-35.27 53.93,-44.79 10.95,-5.02 22.11,-9.82 31.69,-15.75 11.94,-7.39 33.14,-7.86 46.92,-14.99 15.38,-7.96 56.86,-10.21 71.92,-18 9.69,-5.02 14.89,-9.83 22.44,-17.93 3.03,-3.25 3.65,-8.56 7.01,-11.36 4.42,-3.69 15.16,-2.56 20.57,-5.36 16.78,-8.68 32.98,-16.2 49.11,-26.18 5.91,-3.66 17.18,-1.43 22.41,-5.79 5.05,-4.23 2.14,-26.18 14.38,-23.3 10.63,2.5 20.19,10.83 31.32,13.45 3.45,0.81 11.93,-0.88 14.63,2.35 4.69,5.61 6.59,17.8 12.9,21.7 5.54,3.41 11.78,6.18 15.67,10.84 4.85,5.8 -4.68,23.55 -10.79,29.34 -1.01,4.05 -6.51,6.15 -10.24,5.82 -3.98,-0.36 -8.02,1.15 -11.99,-0.33 -7,-2.6 -13.42,-7.33 -20.96,-7.43 -5.9,-0.07 -10.95,6.12 -15.71,8.58 -4.19,2.17 -14.02,5.57 -15.22,10.65 -0.48,2.04 0.21,4.21 -0.25,6.14 -0.24,1.04 0.15,4.22 0.74,5.17 2.67,4.3 6.67,6.76 8.98,11.24 3.45,6.66 1.24,16.5 5.17,22.84 6.21,10.04 19.52,9.45 30.27,10.82 9.64,1.22 18.43,6.23 27.67,7.06 3.19,0.28 6.55,-1.64 9.83,-1.6 4.6,0.06 10.73,1 15.06,2.02 2.08,0.49 6.79,-1.93 8.59,-2.76 5.5,-2.52 14.35,-4.77 20.34,-3.36 1.56,0.37 10.23,3.81 9.11,5.62 -4.61,7.47 -22.73,9.18 -29.99,12.94 -3.66,1.89 -4.8,3.96 -6.8,7.2 -0.84,1.35 -5.03,2.45 -6.98,3.35 -8.61,3.95 -17.76,-1.84 -26.55,-1.25 -5.91,0.4 -11.77,3.25 -17.65,3.45 -4.67,0.17 -8.74,-1.73 -13.34,-1.94 -10.15,-0.47 -20.49,0.34 -30.51,-0.56 -11.6,-1.03 -23.04,-1.05 -33.07,-7.24 -4.81,-2.96 -9.18,-2.46 -12.72,-6.4 -1.28,0.97 -2.57,3.28 -3.38,4.59 -4.03,6.52 -6,12.87 -9.32,19.88 -7.64,16.13 5.51,25.18 5.35,38.03 -0.06,5.06 -0.49,13.82 2.42,18.51 9.23,14.92 13.9,17.52 29.98,23.49 2.26,0.84 4.55,3.31 6.57,4.06 2.52,0.93 8.23,7.61 5.44,9.94 -0.88,0.73 -6.67,0.17 -8.29,0.56 -5.85,1.38 -15.83,6.97 -21.28,1.39 -3.01,-3.1 -6.45,-6.31 -9.75,-9.2 -6.46,-5.64 -14.34,-9.64 -20.48,-15.36 -4.51,-4.21 -6.32,-11.35 -9.26,-16.61 -4.38,-7.82 -9.15,-15.28 -13.83,-22.83 -4.1,-6.63 -8.26,-13.37 -11.8,-20.22 -0.73,-1.4 -2.43,-5.24 -4.37,-5.42 -6.35,-0.56 -11.09,4.1 -16.77,6.22 -15.69,5.85 -28.91,15.33 -43.68,22.97 -5.7,2.95 -11.8,6.36 -18.36,6.59 -3.8,0.14 -8.71,0.08 -12.25,-0.75 -0.14,-0.03 -0.67,-0.38 -0.86,-0.07 -3.5,5.68 -0.86,16.49 0.58,22.59 2.56,10.8 5.95,21.9 6.94,32.88 1.07,11.72 -2.74,18.18 7.09,26.38 6.08,5.07 19.63,6.52 26.92,3.45 5.24,-2.2 10.03,-5.35 16.04,-5.76 5.99,-0.4 13.97,0.88 13.35,7.79 -0.35,3.87 -16.26,10.37 -19.42,11.61 -6.17,2.43 -13.15,7.39 -20.17,7.3 -4.55,-0.06 -9.64,-2.03 -14,-3.42 -1.91,-0.61 -4.29,-0.04 -6.22,-0.21 -9.99,-0.89 -20.19,-2.61 -27.97,-9.09 -5.9,-4.92 -5.93,-13.18 -8.83,-19.52 -3.49,-7.6 -8.24,-15.24 -12.37,-22.61 -0.69,-1.23 -6.18,-13.31 -8.81,-11.11 -6.72,5.62 -10.17,18.96 -13.58,26.79 -4.41,10.11 -8.27,20.46 -14.94,29.36 -6.11,8.14 -14.44,16.8 -17.56,26.61 -2.24,7.06 -9.92,16.27 -5.73,24.37 7.35,14.21 13.44,9.37 26.11,9.53 3.88,0.05 10.87,-0.92 10.8,5.3 -0.13,10.07 -10.99,14.95 -19.56,16.98 -2.34,0.56 -7.45,2.21 -9.61,0.88 -5.24,-3.24 -8.99,-7.52 -13.03,-12.36 -4.56,-5.45 -11.44,-8.81 -15.85,-14.77 -6.8,-9.18 -10.14,-16.99 -12.15,-25.27 -3.44,4.11 -6.93,8.23 -10.21,12.61 -10.26,13.68 -21.42,25.55 -36.45,33.32 -8.41,4.35 -19.84,9.76 -30,9.63 -4.37,-0.05 -8.49,-1.69 -12.76,-1.75 -3.64,-0.04 -8.54,0.4 -11.9,-1.67 -2.54,-1.57 -4.88,-5.27 -6.6,-7.7 -7.31,-10.39 -7.08,-16.57 -3.62,-28.33 1.83,-6.19 3.44,-15.47 12.24,-14.68 2.01,0.18 5.32,2.16 6.72,3.46 7.32,6.83 -0.36,11.62 -2.03,18.72 -0.61,2.61 1.59,8.96 2.91,11.1 1.77,2.85 8.18,4.14 10.92,5.83 1,0.62 5.22,-1.2 6.45,-1.24 3.38,-0.12 7.43,0.85 10.74,-0.86 9.41,-4.87 21.03,-11.24 28.32,-19.06 11.62,-12.46 21.36,-36.92 24.18,-53.15 0.96,-5.51 3.04,-11.33 3.48,-17.11 -0.42,-3.16 -0.8,-6.35 -1.09,-9.56 -0.51,-5.63 -1.69,-10.69 -2.46,-15.61 -1.6,-3.27 -3.42,-7.02 -2.64,-10.18 z" />
                </defs>
                <use
                   xlink:href="#32"
                   style="opacity:1;fill:#c88028;fill-opacity:1;fill-rule:evenodd;stroke:none"
                   id="use150"
                   x="0"
                   y="0"
                   width="100%"
                   height="100%" />
              </g>
            </defs>
            <use
               xlink:href="#31"
               id="use155"
               x="0"
               y="0"
               width="100%"
               height="100%" />
          </g>
          <defs
             id="defs166">
            <title
               id="title158">Shape 14</title>
            <g
               id="33">
              <defs
                 id="defs161">
                <path
                   id="34"
                   d="m 1636.19,1485 c -17.12,-21.95 -4.41,-74.1 11.8,-91.5 15.41,-16.53 33.17,-35.27 53.93,-44.79 10.95,-5.02 22.11,-9.82 31.69,-15.75 11.94,-7.39 33.14,-7.86 46.92,-14.99 15.38,-7.96 56.86,-10.21 71.92,-18 9.69,-5.02 14.89,-9.83 22.44,-17.93 3.03,-3.25 3.65,-8.56 7.01,-11.36 4.42,-3.69 15.16,-2.56 20.57,-5.36 16.78,-8.68 32.98,-16.2 49.11,-26.18 5.91,-3.66 17.18,-1.43 22.41,-5.79 5.05,-4.23 2.14,-26.18 14.38,-23.3 10.63,2.5 20.19,10.83 31.32,13.45 3.45,0.81 11.93,-0.88 14.63,2.35 4.69,5.61 6.59,17.8 12.9,21.7 5.54,3.41 11.78,6.18 15.67,10.84 4.85,5.8 -4.68,23.55 -10.79,29.34 -1.01,4.05 -6.51,6.15 -10.24,5.82 -3.98,-0.36 -8.02,1.15 -11.99,-0.33 -7,-2.6 -13.42,-7.33 -20.96,-7.43 -5.9,-0.07 -10.95,6.12 -15.71,8.58 -4.19,2.17 -14.02,5.57 -15.22,10.65 -0.48,2.04 0.21,4.21 -0.25,6.14 -0.24,1.04 0.15,4.22 0.74,5.17 2.67,4.3 6.67,6.76 8.98,11.24 3.45,6.66 1.24,16.5 5.17,22.84 6.21,10.04 19.52,9.45 30.27,10.82 9.64,1.22 18.43,6.23 27.67,7.06 3.19,0.28 6.55,-1.64 9.83,-1.6 4.6,0.06 10.73,1 15.06,2.02 2.08,0.49 6.79,-1.93 8.59,-2.76 5.5,-2.52 14.35,-4.77 20.34,-3.36 1.56,0.37 10.23,3.81 9.11,5.62 -4.61,7.47 -22.73,9.18 -29.99,12.94 -3.66,1.89 -4.8,3.96 -6.8,7.2 -0.84,1.35 -5.03,2.45 -6.98,3.35 -8.61,3.95 -17.76,-1.84 -26.55,-1.25 -5.91,0.4 -11.77,3.25 -17.65,3.45 -4.67,0.17 -8.74,-1.73 -13.34,-1.94 -10.15,-0.47 -20.49,0.34 -30.51,-0.56 -11.6,-1.03 -23.04,-1.05 -33.07,-7.24 -4.81,-2.96 -9.18,-2.46 -12.72,-6.4 -1.28,0.97 -2.57,3.28 -3.38,4.59 -4.03,6.52 -6,12.87 -9.32,19.88 -7.64,16.13 5.51,25.18 5.35,38.03 -0.06,5.06 -0.49,13.82 2.42,18.51 9.23,14.92 13.9,17.52 29.98,23.49 2.26,0.84 4.55,3.31 6.57,4.06 2.52,0.93 8.23,7.61 5.44,9.94 -0.88,0.73 -6.67,0.17 -8.29,0.56 -5.85,1.38 -15.83,6.97 -21.28,1.39 -3.01,-3.1 -6.45,-6.31 -9.75,-9.2 -6.46,-5.64 -14.34,-9.64 -20.48,-15.36 -4.51,-4.21 -6.32,-11.35 -9.26,-16.61 -4.38,-7.82 -9.15,-15.28 -13.83,-22.83 -4.1,-6.63 -8.26,-13.37 -11.8,-20.22 -0.73,-1.4 -2.43,-5.24 -4.37,-5.42 -6.35,-0.56 -11.09,4.1 -16.77,6.22 -15.69,5.85 -28.91,15.33 -43.68,22.97 -5.7,2.95 -11.8,6.36 -18.36,6.59 -3.8,0.14 -8.71,0.08 -12.25,-0.75 -0.14,-0.03 -0.67,-0.38 -0.86,-0.07 -3.5,5.68 -0.86,16.49 0.58,22.59 2.56,10.8 5.95,21.9 6.94,32.88 1.07,11.72 -2.74,18.18 7.09,26.38 6.08,5.07 19.63,6.52 26.92,3.45 5.24,-2.2 10.03,-5.35 16.04,-5.76 5.99,-0.4 13.97,0.88 13.35,7.79 -0.35,3.87 -16.26,10.37 -19.42,11.61 -6.17,2.43 -13.15,7.39 -20.17,7.3 -4.55,-0.06 -9.64,-2.03 -14,-3.42 -1.91,-0.61 -4.29,-0.04 -6.22,-0.21 -9.99,-0.89 -20.19,-2.61 -27.97,-9.09 -5.9,-4.92 -5.93,-13.18 -8.83,-19.52 -3.49,-7.6 -8.24,-15.24 -12.37,-22.61 -0.69,-1.23 -6.18,-13.31 -8.81,-11.11 -6.72,5.62 -10.17,18.96 -13.58,26.79 -4.41,10.11 -8.27,20.46 -14.94,29.36 -6.11,8.14 -14.44,16.8 -17.56,26.61 -2.24,7.06 -9.92,16.27 -5.73,24.37 7.35,14.21 13.44,9.37 26.11,9.53 3.88,0.05 10.87,-0.92 10.8,5.3 -0.13,10.07 -10.99,14.95 -19.56,16.98 -2.34,0.56 -7.45,2.21 -9.61,0.88 -5.24,-3.24 -8.99,-7.52 -13.03,-12.36 -4.56,-5.45 -11.44,-8.81 -15.85,-14.77 -6.8,-9.18 -10.14,-16.99 -12.15,-25.27 -3.44,4.11 -6.93,8.23 -10.21,12.61 -10.26,13.68 -21.42,25.55 -36.45,33.32 -8.41,4.35 -19.84,9.76 -30,9.63 -4.37,-0.05 -8.49,-1.69 -12.76,-1.75 -3.64,-0.04 -8.54,0.4 -11.9,-1.67 -2.54,-1.57 -4.88,-5.27 -6.6,-7.7 -7.31,-10.39 -7.08,-16.57 -3.62,-28.33 1.83,-6.19 3.44,-15.47 12.24,-14.68 2.01,0.18 5.32,2.16 6.72,3.46 7.32,6.83 -0.36,11.62 -2.03,18.72 -0.61,2.61 1.59,8.96 2.91,11.1 1.77,2.85 8.18,4.14 10.92,5.83 1,0.62 5.22,-1.2 6.45,-1.24 3.38,-0.12 7.43,0.85 10.74,-0.86 9.41,-4.87 21.03,-11.24 28.32,-19.06 11.62,-12.46 21.36,-36.92 24.18,-53.15 0.96,-5.51 3.04,-11.33 3.48,-17.11 -0.42,-3.16 -0.8,-6.35 -1.09,-9.56 -0.51,-5.63 -1.69,-10.69 -2.46,-15.61 -1.6,-3.27 -3.42,-7.02 -2.64,-10.18 z" />
              </defs>
              <use
                 xlink:href="#34"
                 style="opacity:1;fill:#c88028;fill-opacity:1;fill-rule:evenodd;stroke:none"
                 id="use163"
                 x="0"
                 y="0"
                 width="100%"
                 height="100%" />
            </g>
          </defs>
          <use
             xlink:href="#33"
             id="use168"
             x="0"
             y="0"
             width="100%"
             height="100%" />
          <defs
             id="defs178">
            <title
               id="title170">Shape 15</title>
            <g
               id="35">
              <defs
                 id="defs173">
                <path
                   id="36"
                   d="m 1643.83,1489.86 c -17.12,-21.96 -4.41,-74.1 11.81,-91.5 15.4,-16.53 33.16,-35.27 53.93,-44.79 10.94,-5.02 22.1,-9.83 31.69,-15.76 11.94,-7.39 33.13,-7.86 46.91,-14.99 15.39,-7.96 56.87,-10.21 71.92,-17.99 9.69,-5.02 14.89,-9.84 22.44,-17.93 3.04,-3.26 3.66,-8.56 7.01,-11.37 4.42,-3.69 15.16,-2.55 20.57,-5.35 16.78,-8.68 32.98,-16.2 49.12,-26.19 5.9,-3.65 17.18,-1.42 22.4,-5.79 5.05,-4.22 2.14,-26.18 14.38,-23.3 10.63,2.5 20.2,10.83 31.33,13.45 3.44,0.81 11.92,-0.88 14.63,2.36 4.68,5.61 6.58,17.79 12.9,21.69 5.53,3.42 11.77,6.19 15.66,10.85 4.85,5.79 -4.68,23.54 -10.78,29.33 -1.02,4.06 -6.51,6.16 -10.25,5.82 -3.98,-0.36 -8.02,1.15 -11.98,-0.32 -7.01,-2.6 -13.43,-7.34 -20.96,-7.43 -5.91,-0.08 -10.96,6.12 -15.72,8.58 -4.19,2.17 -14.02,5.56 -15.22,10.65 -0.47,2.03 0.21,4.21 -0.24,6.13 -0.25,1.05 0.14,4.22 0.73,5.18 2.67,4.3 6.67,6.76 8.99,11.24 3.44,6.66 1.23,16.49 5.16,22.84 6.21,10.04 19.52,9.45 30.27,10.81 9.64,1.23 18.43,6.23 27.67,7.06 3.2,0.29 6.55,-1.64 9.83,-1.6 4.6,0.06 10.74,1.01 15.06,2.03 2.08,0.49 6.79,-1.94 8.59,-2.76 5.5,-2.53 14.35,-4.77 20.35,-3.36 1.55,0.36 10.22,9.81 9.1,11.62 -4.61,7.47 -22.73,3.18 -29.99,6.93 -3.66,1.9 -4.8,3.97 -6.8,7.2 -0.84,1.36 -5.02,2.46 -6.98,3.36 -8.6,3.94 -17.76,-1.85 -26.55,-1.25 -5.91,0.4 -11.77,3.24 -17.65,3.45 -4.67,0.16 -8.74,-1.74 -13.34,-1.95 -10.14,-0.46 -20.48,0.35 -30.51,-0.55 -11.6,-1.04 -23.04,-1.05 -33.07,-7.24 -4.81,-2.97 -9.18,-2.46 -12.72,-6.41 -1.28,0.98 -2.57,3.28 -3.38,4.59 -4.02,6.52 -6,12.88 -9.32,19.89 -7.64,16.13 5.51,25.17 5.35,38.02 -0.06,5.07 -0.48,13.82 2.42,18.51 9.24,14.92 13.9,17.53 29.98,23.5 2.26,0.84 4.55,3.3 6.57,4.05 2.52,0.94 7.21,1.7 4.42,4.03 -0.88,0.74 -5.64,6.09 -7.26,6.47 -5.86,1.39 -8.45,2.09 -21.29,1.39 -4.31,-0.23 -6.45,-6.31 -9.75,-9.2 -6.46,-5.64 -14.34,-9.63 -20.48,-15.36 -4.51,-4.2 -6.31,-11.35 -9.26,-16.61 -4.38,-7.81 -9.15,-15.27 -13.82,-22.82 -4.11,-6.64 -8.26,-13.37 -11.81,-20.22 -0.72,-1.41 -2.43,-5.25 -4.37,-5.42 -6.35,-0.57 -11.09,4.1 -16.77,6.21 -15.68,5.85 -28.91,15.34 -43.67,22.97 -5.71,2.96 -11.81,6.37 -18.37,6.6 -3.8,0.13 -8.71,0.08 -12.24,-0.75 -0.15,-0.04 -0.67,-0.39 -0.86,-0.08 -3.51,5.69 -0.87,16.49 0.57,22.6 2.56,10.79 5.95,21.9 6.95,32.87 1.06,11.73 -2.75,18.19 7.09,26.39 6.08,5.07 19.62,6.51 26.91,3.45 5.24,-2.2 10.03,-5.36 16.04,-5.76 5.99,-0.41 13.97,0.87 13.35,7.78 -0.35,3.88 -16.26,10.37 -19.42,11.62 -6.17,2.42 -13.15,7.38 -20.16,7.3 -4.56,-0.06 -9.65,-2.04 -14.01,-3.42 -1.9,-0.61 -4.29,-0.04 -6.22,-0.21 -9.99,-0.9 -20.19,-2.61 -27.97,-9.1 -5.9,-4.91 -5.92,-13.17 -8.83,-19.52 -3.49,-7.6 -8.24,-15.23 -12.37,-22.61 -0.69,-1.22 -6.18,-13.3 -8.81,-11.1 -6.72,5.61 -10.17,18.95 -13.58,26.79 -4.4,10.1 -8.27,20.46 -14.94,29.35 -6.11,8.15 -14.43,16.8 -17.55,26.61 -2.25,7.07 -9.93,16.27 -5.74,24.37 7.35,14.22 13.44,9.38 26.11,9.54 3.88,0.05 10.88,-0.93 10.8,5.3 -0.13,10.06 -10.99,14.95 -19.56,16.98 -2.34,0.55 -7.45,2.21 -9.61,0.87 -5.24,-3.23 -8.99,-7.52 -13.03,-12.35 -4.56,-5.46 -11.44,-8.82 -15.85,-14.77 -6.8,-9.19 -10.14,-17 -12.15,-25.27 -3.44,4.11 -6.93,8.23 -10.21,12.6 -10.26,13.68 -21.42,25.55 -36.45,33.33 -8.4,4.35 -19.83,9.75 -30,9.63 -4.37,-0.06 -8.49,-1.7 -12.76,-1.75 -3.64,-0.05 -8.54,0.4 -11.9,-1.67 -2.54,-1.57 -4.88,-5.27 -6.59,-7.7 -7.32,-10.4 -7.09,-16.57 -3.63,-28.33 1.83,-6.19 3.44,-15.48 12.24,-14.69 2.01,0.18 5.32,2.16 6.72,3.46 7.32,6.83 -0.35,11.63 -2.02,18.72 -0.62,2.62 1.58,8.97 2.9,11.1 1.77,2.86 8.18,4.14 10.93,5.84 0.99,0.61 5.21,-1.21 6.44,-1.25 3.38,-0.12 7.43,0.85 10.74,-0.86 9.41,-4.87 21.03,-11.23 28.32,-19.05 11.62,-12.46 21.36,-36.93 24.18,-53.16 0.96,-5.5 3.05,-11.33 3.48,-17.1 -0.42,-3.17 -0.8,-6.35 -1.09,-9.56 -0.51,-5.63 -1.69,-10.7 -2.45,-15.61 -1.61,-3.27 -3.43,-7.03 -2.65,-10.18 z" />
              </defs>
              <use
                 xlink:href="#36"
                 style="opacity:1;fill:#e6af33;fill-opacity:1;fill-rule:evenodd;stroke:none"
                 id="use175"
                 x="0"
                 y="0"
                 width="100%"
                 height="100%" />
            </g>
          </defs>
          <use
             xlink:href="#35"
             id="use180"
             x="0"
             y="0"
             width="100%"
             height="100%" />
        </g>
        <g
           id="37">
          <title
             id="title183">Group</title>
          <defs
             id="defs193">
            <title
               id="title185">Shape 16</title>
            <g
               id="38">
              <defs
                 id="defs188">
                <path
                   id="39"
                   d="m 3225.74,1826.29 c 0,-16.9 0,-33.8 0,-50.71 0,-3.07 -1.55,-4.61 -4.66,-4.61 -3.11,0 -4.67,1.54 -4.67,4.61 0,16.91 0,33.81 0,50.71 0,3.08 1.56,4.62 4.67,4.62 3.11,0 4.66,-1.54 4.66,-4.62 m 23.07,4.83 c 0,6.37 -2.23,11.78 -6.7,16.25 -4.47,4.47 -9.88,6.7 -16.24,6.7 -1.58,0 -3.15,0 -4.72,0 -3.15,0 -4.74,1.53 -4.74,4.59 0,6.13 0,12.26 0,18.38 0,2.58 -0.88,4.75 -2.66,6.53 -1.77,1.78 -3.94,2.67 -6.51,2.67 -1.53,0 -3.06,0 -4.59,0 -2.57,0 -4.74,-0.89 -6.51,-2.68 -1.78,-1.78 -2.67,-3.97 -2.67,-6.56 0,-35.39 0,-70.78 0,-106.17 0,-6.36 2.25,-11.78 6.76,-16.24 4.5,-4.47 9.97,-6.7 16.38,-6.7 3.09,0 6.17,0 9.26,0 6.36,0 11.77,2.23 16.24,6.7 4.47,4.46 6.7,9.88 6.7,16.24 0,20.1 0,40.19 0,60.29 z" />
              </defs>
              <use
                 xlink:href="#39"
                 style="opacity:1;fill:#ffffff;fill-opacity:1;fill-rule:nonzero;stroke:none"
                 id="use190"
                 x="0"
                 y="0"
                 width="100%"
                 height="100%" />
            </g>
          </defs>
          <use
             xlink:href="#38"
             id="use195"
             x="0"
             y="0"
             width="100%"
             height="100%" />
          <defs
             id="defs205">
            <title
               id="title197">Shape 17</title>
            <g
               id="40">
              <defs
                 id="defs200">
                <path
                   id="41"
                   d="m 3294,1858.57 c 0,-3.07 -1.53,-4.61 -4.61,-4.61 -3.08,0 -4.61,1.54 -4.61,4.61 0,3.07 1.53,4.61 4.61,4.61 3.08,0 4.61,-1.54 4.61,-4.61 m 23.06,4.72 c 0,6.36 -2.23,11.78 -6.7,16.25 -4.47,4.46 -9.88,6.7 -16.24,6.7 -3.15,0 -6.3,0 -9.45,0 -6.36,0 -11.78,-2.24 -16.25,-6.7 -4.46,-4.47 -6.69,-9.89 -6.69,-16.25 0,-3.08 0,-6.15 0,-9.22 0,-6.37 2.23,-11.78 6.69,-16.25 4.47,-4.46 9.89,-6.7 16.25,-6.7 1.55,0 3.11,0 4.66,0 3.11,0 4.67,-1.55 4.67,-4.64 0,-17 0,-34.01 0,-51.01 0,-3.09 -1.53,-4.64 -4.61,-4.64 -3.08,0 -4.61,1.54 -4.61,4.62 0,12.33 0,24.66 0,36.99 0,2.59 -0.9,4.78 -2.67,6.57 -1.79,1.78 -3.97,2.68 -6.56,2.68 -1.53,0 -3.07,0 -4.6,0 -2.58,0 -4.77,-0.89 -6.55,-2.68 -1.78,-1.78 -2.67,-3.96 -2.67,-6.55 0,-13.84 0,-27.68 0,-41.51 0,-6.4 2.23,-11.84 6.69,-16.33 4.47,-4.49 9.89,-6.73 16.25,-6.73 3.15,0 6.3,0 9.45,0 6.36,0 11.78,2.25 16.24,6.74 4.47,4.49 6.7,9.94 6.7,16.34 0,30.77 0,61.54 0,92.32 z" />
              </defs>
              <use
                 xlink:href="#41"
                 style="opacity:1;fill:#ffffff;fill-opacity:1;fill-rule:nonzero;stroke:none"
                 id="use202"
                 x="0"
                 y="0"
                 width="100%"
                 height="100%" />
            </g>
          </defs>
          <use
             xlink:href="#40"
             id="use207"
             x="0"
             y="0"
             width="100%"
             height="100%" />
          <defs
             id="defs217">
            <title
               id="title209">Shape 18</title>
            <g
               id="42">
              <defs
                 id="defs212">
                <path
                   id="43"
                   d="m 3385.3,1812.46 c 0,2.59 -0.9,4.77 -2.67,6.55 -1.77,1.78 -3.94,2.68 -6.51,2.68 -1.53,0 -3.06,0 -4.59,0 -2.57,0 -4.75,-0.9 -6.52,-2.68 -1.78,-1.79 -2.66,-3.98 -2.66,-6.58 0,-12.32 0,-24.65 0,-36.98 0,-3.08 -1.58,-4.62 -4.73,-4.62 -3.14,0 -4.72,1.54 -4.72,4.62 0,33.85 0,67.7 0,101.55 0,2.58 -0.89,4.77 -2.66,6.56 -1.77,1.78 -3.94,2.68 -6.51,2.68 -1.53,0 -3.07,0 -4.6,0 -2.57,0 -4.74,-0.9 -6.51,-2.68 -1.78,-1.78 -2.66,-3.96 -2.66,-6.55 0,-35.36 0,-70.71 0,-106.07 0,-6.39 2.24,-11.83 6.73,-16.32 4.49,-4.49 9.93,-6.73 16.32,-6.73 3.08,0 6.15,0 9.23,0 6.4,0 11.83,2.24 16.32,6.73 4.49,4.49 6.74,9.93 6.74,16.32 0,13.84 0,27.68 0,41.52 z" />
              </defs>
              <use
                 xlink:href="#43"
                 style="opacity:1;fill:#ffffff;fill-opacity:1;fill-rule:nonzero;stroke:none"
                 id="use214"
                 x="0"
                 y="0"
                 width="100%"
                 height="100%" />
            </g>
          </defs>
          <use
             xlink:href="#42"
             id="use219"
             x="0"
             y="0"
             width="100%"
             height="100%" />
          <defs
             id="defs229">
            <title
               id="title221">Shape 19</title>
            <g
               id="44">
              <defs
                 id="defs224">
                <path
                   id="45"
                   d="m 3430.46,1858.57 c 0,-27.67 0,-55.33 0,-82.99 0,-3.07 -1.56,-4.61 -4.66,-4.61 -3.12,0 -4.67,1.54 -4.67,4.61 0,27.66 0,55.32 0,82.99 0,3.07 1.55,4.61 4.67,4.61 3.1,0 4.66,-1.54 4.66,-4.61 m 23.06,4.72 c 0,6.36 -2.23,11.78 -6.69,16.25 -4.47,4.46 -9.89,6.7 -16.25,6.7 -7.71,0 -15.42,0 -23.14,0 -2.59,0 -4.78,-0.9 -6.57,-2.68 -1.79,-1.78 -2.68,-3.96 -2.68,-6.55 0,-39.97 0,-79.94 0,-119.9 0,-2.58 0.89,-4.76 2.68,-6.55 1.79,-1.78 3.98,-2.67 6.57,-2.67 7.72,0 15.43,0 23.14,0 6.36,0 11.78,2.23 16.25,6.7 4.46,4.46 6.69,9.88 6.69,16.24 0,30.82 0,61.64 0,92.46 z" />
              </defs>
              <use
                 xlink:href="#45"
                 style="opacity:1;fill:#ffffff;fill-opacity:1;fill-rule:nonzero;stroke:none"
                 id="use226"
                 x="0"
                 y="0"
                 width="100%"
                 height="100%" />
            </g>
          </defs>
          <use
             xlink:href="#44"
             id="use231"
             x="0"
             y="0"
             width="100%"
             height="100%" />
          <defs
             id="defs241">
            <title
               id="title233">Shape 20</title>
            <g
               id="46">
              <defs
                 id="defs236">
                <path
                   id="47"
                   d="m 3521.76,1863.29 c 0,6.36 -2.23,11.78 -6.7,16.24 -4.46,4.47 -9.89,6.7 -16.24,6.7 -3.15,0 -6.3,0 -9.45,0 -6.37,0 -11.79,-2.23 -16.25,-6.7 -4.47,-4.46 -6.7,-9.88 -6.7,-16.24 0,-35.39 0,-70.78 0,-106.17 0,-2.59 0.89,-4.77 2.67,-6.56 1.79,-1.78 3.97,-2.67 6.55,-2.67 1.54,0 3.08,0 4.61,0 2.59,0 4.77,0.89 6.55,2.67 1.78,1.78 2.68,3.97 2.68,6.54 0,33.83 0,67.65 0,101.47 0,3.07 1.53,4.61 4.61,4.61 3.07,0 4.61,-1.54 4.61,-4.61 0,-33.82 0,-67.64 0,-101.47 0,-2.57 0.89,-4.76 2.67,-6.54 1.78,-1.78 3.97,-2.67 6.56,-2.67 1.53,0 3.06,0 4.6,0 2.58,0 4.77,0.89 6.55,2.67 1.79,1.79 2.68,3.97 2.68,6.56 0,35.39 0,70.78 0,106.17 z" />
              </defs>
              <use
                 xlink:href="#47"
                 style="opacity:1;fill:#ffffff;fill-opacity:1;fill-rule:nonzero;stroke:none"
                 id="use238"
                 x="0"
                 y="0"
                 width="100%"
                 height="100%" />
            </g>
          </defs>
          <use
             xlink:href="#46"
             id="use243"
             x="0"
             y="0"
             width="100%"
             height="100%" />
          <defs
             id="defs253">
            <title
               id="title245">Shape 21</title>
            <g
               id="48">
              <defs
                 id="defs248">
                <path
                   id="49"
                   d="m 3589.99,1863.29 c 0,6.36 -2.23,11.78 -6.69,16.24 -4.47,4.47 -9.89,6.7 -16.25,6.7 -7.71,0 -15.43,0 -23.14,0 -2.59,0 -4.78,-0.89 -6.57,-2.67 -1.8,-1.78 -2.69,-3.96 -2.69,-6.55 0,-1.54 0,-3.07 0,-4.61 0,-2.58 0.89,-4.76 2.68,-6.55 1.78,-1.78 3.96,-2.67 6.55,-2.67 6.14,0 12.29,0 18.44,0 3.07,0 4.61,-1.52 4.61,-4.56 0,-3.04 -1.56,-4.56 -4.66,-4.56 -1.56,0 -3.11,0 -4.67,0 -6.36,0 -11.78,-2.23 -16.25,-6.7 -4.47,-4.46 -6.7,-9.88 -6.7,-16.24 0,-20.1 0,-40.19 0,-60.29 0,-6.36 2.23,-11.78 6.7,-16.24 4.47,-4.47 9.89,-6.7 16.25,-6.7 3.15,0 6.3,0 9.45,0 6.36,0 11.78,2.23 16.25,6.7 4.46,4.46 6.69,9.88 6.69,16.24 0,13.87 0,27.74 0,41.6 0,2.6 -0.89,4.79 -2.67,6.57 -1.79,1.79 -3.97,2.69 -6.55,2.69 -1.54,0 -3.08,0 -4.61,0 -2.59,0 -4.77,-0.9 -6.56,-2.68 -1.78,-1.78 -2.67,-3.97 -2.67,-6.55 0,-12.29 0,-24.59 0,-36.88 0,-3.07 -1.54,-4.61 -4.61,-4.61 -3.08,0 -4.61,1.54 -4.61,4.61 0,16.9 0,33.81 0,50.71 0,3.08 1.56,4.62 4.67,4.62 1.56,0 3.11,0 4.67,0 6.36,0 11.78,2.25 16.25,6.75 4.46,4.5 6.69,9.96 6.69,16.38 0,3.08 0,6.16 0,9.25 z" />
              </defs>
              <use
                 xlink:href="#49"
                 style="opacity:1;fill:#ffffff;fill-opacity:1;fill-rule:nonzero;stroke:none"
                 id="use250"
                 x="0"
                 y="0"
                 width="100%"
                 height="100%" />
            </g>
          </defs>
          <use
             xlink:href="#48"
             id="use255"
             x="0"
             y="0"
             width="100%"
             height="100%" />
          <defs
             id="defs265">
            <title
               id="title257">Shape 22</title>
            <g
               id="50">
              <defs
                 id="defs260">
                <path
                   id="51"
                   d="m 3161.64,1748.65 c -0.18,0.46 -3.11,4.96 -6.5,10 -3.4,5.04 -15.27,13.79 -18.49,7.76 -1.83,-3.4 -3.65,-6.8 -5.47,-10.21 -3.23,-6.03 -5.95,-11.1 -6.05,-11.28 -0.11,-0.18 4.69,-2.97 10.91,-5.81 0.32,-0.15 0.64,-0.3 0.96,-0.44 6.22,-2.84 11.88,-5.18 12.59,-5.2 0.71,-0.02 3.92,3.29 6.63,6.71 2.71,3.42 5.16,6.7 5.42,7.3 0,0.39 0,0.78 0,1.17 z m -16.83,56.67 c 0.07,1.67 -0.81,8.55 -1.95,15.29 -0.81,4.79 -1.62,9.59 -2.44,14.39 -1.14,6.73 -2.48,12.94 -2.99,13.78 -0.51,0.85 -6.26,2.88 -11.2,4.12 -4.94,1.24 -8.82,1.45 -8.63,0.46 0.19,-0.99 -2.68,-7.93 -6.37,-13.31 -3.7,-5.37 -6.72,-9.62 -6.71,-9.43 0,0.19 0.85,4.6 1.79,9.39 0.94,4.79 1.63,9.9 1.53,11.36 -0.11,1.46 -1.77,4.84 -2.32,5.6 -0.55,0.77 -3,4.17 -5.47,7.58 -2.46,3.41 -7.38,10.24 -10.95,15.19 -3.57,4.93 -7.34,9.62 -8.37,10.39 -1.04,0.77 -6.83,1.4 -10.79,1.4 -3.94,0 -8.19,-0.32 -9.42,-0.71 -1.23,-0.39 -6.19,-6.18 -9.79,-11.17 -3.6,-5 -8.56,-11.86 -11,-15.25 -2.46,-3.4 -4.88,-6.77 -5.41,-7.49 -0.52,-0.72 -1.37,-2.44 -1.89,-3.8 -0.51,-1.37 0.21,-8.31 1.15,-13.1 0.94,-4.79 1.73,-8.86 1.76,-9.05 0.03,-0.19 -2.98,3.72 -6.68,9.09 -3.7,5.38 -6.66,10.57 -6.6,11.54 0.07,0.96 -3.48,2.49 -8.41,1.26 -4.93,-1.22 -9.63,-2.69 -10.43,-3.25 -0.8,-0.57 -2.62,-7.87 -3.76,-14.6 -0.81,-4.8 -1.62,-9.6 -2.44,-14.39 -1.14,-6.74 -2.01,-13.62 -1.94,-15.29 0.08,-1.67 1.92,-6.37 2.82,-8.05 0.9,-1.68 4.28,-8 7.5,-14.02 4,-7.47 8,-14.94 11.99,-22.41 3.23,-6.02 6.68,-11.79 7.67,-12.81 0.99,-1.03 3.71,-2.3 3.84,-2.33 0.13,-0.03 5.68,-1.3 12.34,-2.83 4.1,-0.94 8.2,-1.89 12.31,-2.83 6.65,-1.53 13.67,-2.91 15.59,-3.06 1.91,-0.15 11.39,1.57 18.04,3.13 3.83,0.9 7.66,1.79 11.48,2.68 6.66,1.56 12.2,2.86 12.33,2.89 0.12,0.02 1.24,0.62 2.49,1.31 1.25,0.69 5.79,7.83 9.02,13.85 3.99,7.47 7.99,14.94 11.99,22.41 3.22,6.02 6.6,12.34 7.5,14.02 0.91,1.68 2.75,6.38 2.82,8.05 m -160.05,-46.67 c -3.41,-5.04 -6.33,-9.54 -6.51,-10 0,-0.39 0,-0.78 0,-1.17 0.26,-0.6 2.7,-3.88 5.42,-7.3 2.72,-3.42 5.38,-6.43 5.91,-6.69 0.53,-0.26 7.09,2.34 13.3,5.18 0.33,0.14 0.65,0.29 0.98,0.44 6.21,2.84 11.21,5.31 11.1,5.49 -0.11,0.17 -3.02,5.57 -6.24,11.6 -1.83,3.41 -3.65,6.81 -5.47,10.21 -3.23,6.03 -15.1,-2.72 -18.49,-7.76 m 185.86,-13.17 c -0.96,-2.87 -3.98,-8.01 -6.69,-11.42 -2.72,-3.43 -7.14,-7.48 -9.82,-9.01 -2.69,-1.54 -14.98,1.82 -21.19,4.67 -1.51,0.69 -3.03,1.38 -4.54,2.07 -6.22,2.84 -11.39,5.21 -11.49,5.26 -0.1,0.05 -0.84,0 -1.4,-0.23 -0.57,-0.25 -7.48,-1.95 -14.14,-3.51 -3.98,-0.93 -7.95,-1.86 -11.92,-2.78 -6.66,-1.56 -14.34,-3.05 -17.07,-3.3 -2.73,-0.26 -14.36,1.69 -21.02,3.22 -4.25,0.98 -8.51,1.95 -12.76,2.93 -6.66,1.53 -12.57,2.92 -13.14,3.09 -0.56,0.16 -2.13,0.74 -2.24,0.68 -0.1,-0.06 -5.47,-2.52 -11.69,-5.36 -1.51,-0.69 -3.02,-1.38 -4.53,-2.07 -6.22,-2.85 -13.89,-5.36 -17.05,-5.59 -3.16,-0.24 -11.25,6.5 -13.97,9.93 -2.72,3.41 -5.73,8.56 -6.69,11.42 -0.97,2.86 4.27,14.14 8.09,19.81 2.61,3.86 5.22,7.73 7.82,11.6 3.82,5.66 5.93,12.21 4.67,14.54 -1.25,2.35 -2.96,6.51 -3.8,9.26 -0.85,2.75 0.13,14.82 1.27,21.56 0.81,4.8 1.63,9.59 2.44,14.39 1.14,6.74 3.29,14.51 4.76,17.26 1.49,2.76 13.21,7.63 19.85,9.27 0.99,0.25 1.98,0.5 2.96,0.74 6.64,1.65 15.34,7.53 19.34,13.07 1.78,2.47 3.57,4.95 5.36,7.42 3.99,5.55 9.2,11.63 11.58,13.53 2.37,1.89 12.39,3.44 16.33,3.44 3.96,0 9.58,-0.67 12.5,-1.48 2.93,-0.81 11.43,-9.94 15.42,-15.49 1.76,-2.44 3.52,-4.87 5.28,-7.3 4,-5.54 12.69,-11.44 19.32,-13.1 1.03,-0.26 2.06,-0.52 3.09,-0.78 6.63,-1.67 14.21,-4.41 16.84,-6.09 2.63,-1.69 6.6,-13.75 7.74,-20.49 0.82,-4.8 1.63,-9.59 2.44,-14.39 1.14,-6.74 2.01,-14.6 1.94,-17.48 -0.08,-2.88 -3.22,-10.99 -4.48,-13.34 -1.25,-2.33 0.86,-8.88 4.68,-14.54 2.61,-3.87 5.21,-7.74 7.82,-11.6 3.82,-5.67 9.06,-16.95 8.09,-19.81" />
              </defs>
              <use
                 xlink:href="#51"
                 style="opacity:1;fill:#ffffff;fill-opacity:1;fill-rule:nonzero;stroke:none"
                 id="use262"
                 x="0"
                 y="0"
                 width="100%"
                 height="100%" />
            </g>
          </defs>
          <use
             xlink:href="#50"
             id="use267"
             x="0"
             y="0"
             width="100%"
             height="100%" />
          <defs
             id="defs277">
            <title
               id="title269">Shape 23</title>
            <g
               id="52">
              <defs
                 id="defs272">
                <path
                   id="53"
                   d="m 3052.58,1840.38 c -1.46,-2.93 0.02,-5.35 3.31,-5.35 9.38,0 18.75,0 28.13,0 3.28,0 4.77,2.42 3.31,5.35 -4.9,5.57 -9.8,11.14 -14.7,16.71 -1.47,2.94 -3.87,2.94 -5.35,0 -4.9,-5.57 -9.8,-11.14 -14.7,-16.71 z" />
              </defs>
              <use
                 xlink:href="#53"
                 style="opacity:1;fill:#ffffff;fill-opacity:1;fill-rule:nonzero;stroke:none"
                 id="use274"
                 x="0"
                 y="0"
                 width="100%"
                 height="100%" />
            </g>
          </defs>
          <use
             xlink:href="#52"
             id="use279"
             x="0"
             y="0"
             width="100%"
             height="100%" />
          <defs
             id="defs289">
            <title
               id="title281">Shape 24</title>
            <g
               id="54">
              <defs
                 id="defs284">
                <path
                   id="55"
                   d="m 3069.96,1876.22 c 0,0 1.99,1.82 4.42,4.03 3.18,2.91 6.36,5.82 9.54,8.73 2.44,2.22 5.09,2.44 5.9,0.49 0.82,-1.96 -0.73,-5.06 -3.45,-6.92 -3.02,-2.05 -6.03,-4.11 -9.05,-6.17 -2.71,-1.85 -4.93,-3.43 -4.92,-3.5 0.01,-0.07 0.02,-2.96 0.02,-6.25 0,-5.62 0,-11.23 0,-16.85 0,-3.29 -0.49,-7.09 -1.1,-8.44 -0.91,0 -1.81,0 -2.72,0 -0.6,1.35 -1.1,5.15 -1.1,8.44 0,5.62 0,11.23 0,16.85 0,3.29 0.01,6.04 0.01,6.12 0.01,0.07 -2.19,1.78 -4.91,3.63 -3.02,2.06 -6.03,4.12 -9.05,6.17 -2.71,1.86 -4.27,4.96 -3.45,6.92 0.81,1.95 3.46,1.73 5.89,-0.49 3.19,-2.91 6.37,-5.82 9.56,-8.73 2.43,-2.21 4.41,-4.03 4.41,-4.03" />
              </defs>
              <use
                 xlink:href="#55"
                 style="opacity:1;fill:#ffffff;fill-opacity:1;fill-rule:nonzero;stroke:none"
                 id="use286"
                 x="0"
                 y="0"
                 width="100%"
                 height="100%" />
            </g>
          </defs>
          <use
             xlink:href="#54"
             id="use291"
             x="0"
             y="0"
             width="100%"
             height="100%" />
          <defs
             id="defs301">
            <title
               id="title293">Shape 25</title>
            <g
               id="56">
              <defs
                 id="defs296">
                <path
                   id="57"
                   d="m 3017.64,1796.18 c -3.53,0.1 -3.56,0.59 -0.06,1.09 9.77,1.4 19.55,2.79 29.33,4.19 3.49,0.5 6.08,3.78 5.76,7.3 -1.25,4.36 -2.5,8.72 -3.75,13.09 -0.31,3.51 0.78,6.48 2.46,6.61 1.67,0.12 3.04,0.1 3.06,-0.04 0,-0.14 0.14,-3.14 0.29,-6.67 1.02,-4.09 2.04,-8.19 3.06,-12.28 0.16,-3.53 0.35,-8.22 0.45,-10.42 0.1,-2.21 -0.83,-3.99 -2.07,-3.95 -1.23,0.03 -5.13,0.14 -8.66,0.24 -9.96,0.28 -19.91,0.56 -29.87,0.84 z" />
              </defs>
              <use
                 xlink:href="#57"
                 style="opacity:1;fill:#ffffff;fill-opacity:1;fill-rule:nonzero;stroke:none"
                 id="use298"
                 x="0"
                 y="0"
                 width="100%"
                 height="100%" />
            </g>
          </defs>
          <use
             xlink:href="#56"
             id="use303"
             x="0"
             y="0"
             width="100%"
             height="100%" />
          <defs
             id="defs313">
            <title
               id="title305">Shape 26</title>
            <g
               id="58">
              <defs
                 id="defs308">
                <path
                   id="59"
                   d="m 3092.4,1795.34 c -3.53,-0.1 -7.43,-0.21 -8.66,-0.24 -1.24,-0.04 -2.17,1.74 -2.08,3.95 0.1,2.2 0.3,6.89 0.46,10.42 1.02,4.09 2.04,8.19 3.06,12.28 0.15,3.53 0.28,6.53 0.3,6.67 0.01,0.14 1.38,0.16 3.05,0.04 1.67,-0.13 2.77,-3.1 2.45,-6.61 -1.25,-4.37 -2.49,-8.73 -3.74,-13.09 -0.33,-3.52 2.27,-6.8 5.76,-7.3 9.78,-1.39 19.55,-2.79 29.33,-4.19 3.49,-0.5 3.47,-0.99 -0.06,-1.09 -9.96,-0.28 -19.91,-0.56 -29.87,-0.84 z" />
              </defs>
              <use
                 xlink:href="#59"
                 style="opacity:1;fill:#ffffff;fill-opacity:1;fill-rule:nonzero;stroke:none"
                 id="use310"
                 x="0"
                 y="0"
                 width="100%"
                 height="100%" />
            </g>
          </defs>
          <use
             xlink:href="#58"
             id="use315"
             x="0"
             y="0"
             width="100%"
             height="100%" />
          <defs
             id="defs325">
            <title
               id="title317">Shape 27</title>
            <g
               id="60">
              <defs
                 id="defs320">
                <path
                   id="61"
                   d="m 3043.99,1800.61 c 0,2.25 -1.82,4.07 -4.07,4.07 -2.25,0 -4.06,-1.82 -4.06,-4.07 0,-2.25 1.81,-4.07 4.06,-4.07 2.25,0 4.07,1.82 4.07,4.07" />
              </defs>
              <use
                 xlink:href="#61"
                 style="opacity:1;fill:#ffffff;fill-opacity:1;fill-rule:nonzero;stroke:none"
                 id="use322"
                 x="0"
                 y="0"
                 width="100%"
                 height="100%" />
            </g>
          </defs>
          <use
             xlink:href="#60"
             id="use327"
             x="0"
             y="0"
             width="100%"
             height="100%" />
          <defs
             id="defs337">
            <title
               id="title329">Shape 28</title>
            <g
               id="62">
              <defs
                 id="defs332">
                <path
                   id="63"
                   d="m 3104.06,1800.61 c 0,2.25 -1.82,4.07 -4.07,4.07 -2.26,0 -4.07,-1.82 -4.07,-4.07 0,-2.25 1.81,-4.07 4.07,-4.07 2.25,0 4.07,1.82 4.07,4.07" />
              </defs>
              <use
                 xlink:href="#63"
                 style="opacity:1;fill:#ffffff;fill-opacity:1;fill-rule:nonzero;stroke:none"
                 id="use334"
                 x="0"
                 y="0"
                 width="100%"
                 height="100%" />
            </g>
          </defs>
          <use
             xlink:href="#62"
             id="use339"
             x="0"
             y="0"
             width="100%"
             height="100%" />
          <defs
             id="defs349">
            <title
               id="title341">Shape 29</title>
            <g
               id="64">
              <defs
                 id="defs344">
                <path
                   id="65"
                   d="m 3053.78,1850.74 c -22.47,5.59 -44.73,17.1 -62.06,32.53 -1.2,1.06 0.3,2.69 1.57,1.85 19.74,-13.16 38.09,-24.64 60.99,-31.57 1.71,-0.52 1.32,-3.26 -0.5,-2.81" />
              </defs>
              <use
                 xlink:href="#65"
                 style="opacity:1;fill:#ffffff;fill-opacity:1;fill-rule:nonzero;stroke:none"
                 id="use346"
                 x="0"
                 y="0"
                 width="100%"
                 height="100%" />
            </g>
          </defs>
          <use
             xlink:href="#64"
             id="use351"
             x="0"
             y="0"
             width="100%"
             height="100%" />
          <defs
             id="defs361">
            <title
               id="title353">Shape 30</title>
            <g
               id="66">
              <defs
                 id="defs356">
                <path
                   id="67"
                   d="m 3054.36,1858.73 c -18.5,1.73 -35.98,19.76 -45.6,34.59 -0.62,0.96 0.64,2.24 1.53,1.4 13.64,-12.93 24.73,-29.81 44.47,-33.69 1.49,-0.29 1.08,-2.44 -0.4,-2.3" />
              </defs>
              <use
                 xlink:href="#67"
                 style="opacity:1;fill:#ffffff;fill-opacity:1;fill-rule:nonzero;stroke:none"
                 id="use358"
                 x="0"
                 y="0"
                 width="100%"
                 height="100%" />
            </g>
          </defs>
          <use
             xlink:href="#66"
             id="use363"
             x="0"
             y="0"
             width="100%"
             height="100%" />
          <defs
             id="defs373">
            <title
               id="title365">Shape 31</title>
            <g
               id="68">
              <defs
                 id="defs368">
                <path
                   id="69"
                   d="m 3055.99,1866.51 c -17.92,4.79 -32.4,25.81 -39.18,42.07 -0.46,1.12 1.14,1.88 1.83,0.96 11.3,-14.99 19.17,-33.74 38.05,-40.83 1.22,-0.46 0.57,-2.54 -0.7,-2.2" />
              </defs>
              <use
                 xlink:href="#69"
                 style="opacity:1;fill:#ffffff;fill-opacity:1;fill-rule:nonzero;stroke:none"
                 id="use370"
                 x="0"
                 y="0"
                 width="100%"
                 height="100%" />
            </g>
          </defs>
          <use
             xlink:href="#68"
             id="use375"
             x="0"
             y="0"
             width="100%"
             height="100%" />
          <defs
             id="defs385">
            <title
               id="title377">Shape 32</title>
            <g
               id="70">
              <defs
                 id="defs380">
                <path
                   id="71"
                   d="m 3085.39,1853.48 c 22.96,6.95 41.54,18.53 61.32,31.7 1.33,0.89 2.53,-0.97 1.39,-1.98 -17.2,-15.3 -39.41,-26.84 -61.72,-32.39 -1.74,-0.43 -2.77,2.13 -0.99,2.67" />
              </defs>
              <use
                 xlink:href="#71"
                 style="opacity:1;fill:#ffffff;fill-opacity:1;fill-rule:nonzero;stroke:none"
                 id="use382"
                 x="0"
                 y="0"
                 width="100%"
                 height="100%" />
            </g>
          </defs>
          <use
             xlink:href="#70"
             id="use387"
             x="0"
             y="0"
             width="100%"
             height="100%" />
          <defs
             id="defs397">
            <title
               id="title389">Shape 33</title>
            <g
               id="72">
              <defs
                 id="defs392">
                <path
                   id="73"
                   d="m 3085.22,1861.04 c 19.62,3.85 30.72,20.71 44.27,33.55 0.98,0.94 2.31,-0.22 1.58,-1.34 -9.59,-14.77 -27.16,-32.81 -45.63,-34.53 -1.52,-0.14 -1.66,2.04 -0.22,2.32" />
              </defs>
              <use
                 xlink:href="#73"
                 style="opacity:1;fill:#ffffff;fill-opacity:1;fill-rule:nonzero;stroke:none"
                 id="use394"
                 x="0"
                 y="0"
                 width="100%"
                 height="100%" />
            </g>
          </defs>
          <use
             xlink:href="#72"
             id="use399"
             x="0"
             y="0"
             width="100%"
             height="100%" />
          <defs
             id="defs409">
            <title
               id="title401">Shape 34</title>
            <g
               id="74">
              <defs
                 id="defs404">
                <path
                   id="75"
                   d="m 3083.3,1868.75 c 18.85,7.08 26.75,25.9 38.02,40.86 0.74,0.98 2.18,-0.07 1.74,-1.12 -6.73,-16.15 -21.17,-37.17 -38.95,-41.92 -1.42,-0.38 -2.23,1.65 -0.81,2.18" />
              </defs>
              <use
                 xlink:href="#75"
                 style="opacity:1;fill:#ffffff;fill-opacity:1;fill-rule:nonzero;stroke:none"
                 id="use406"
                 x="0"
                 y="0"
                 width="100%"
                 height="100%" />
            </g>
          </defs>
          <use
             xlink:href="#74"
             id="use411"
             x="0"
             y="0"
             width="100%"
             height="100%" />
          <defs
             id="defs421">
            <title
               id="title413">Shape 35</title>
            <g
               id="76">
              <defs
                 id="defs416">
                <path
                   id="77"
                   d="m 3038.02,1756.48 c 0,4.53 -2.95,8.22 -6.58,8.22 -3.63,0 -6.58,-3.69 -6.58,-8.22 0,-4.55 2.95,-8.23 6.58,-8.23 3.63,0 6.58,3.68 6.58,8.23" />
              </defs>
              <use
                 xlink:href="#77"
                 style="opacity:1;fill:#ffffff;fill-opacity:1;fill-rule:nonzero;stroke:none"
                 id="use418"
                 x="0"
                 y="0"
                 width="100%"
                 height="100%" />
            </g>
          </defs>
          <use
             xlink:href="#76"
             id="use423"
             x="0"
             y="0"
             width="100%"
             height="100%" />
          <defs
             id="defs433">
            <title
               id="title425">Shape 36</title>
            <g
               id="78">
              <defs
                 id="defs428">
                <path
                   id="79"
                   d="m 3029.14,1772.27 c 0,3.03 -2.46,5.48 -5.48,5.48 -3.03,0 -5.48,-2.45 -5.48,-5.48 0,-3.03 2.45,-5.48 5.48,-5.48 3.02,0 5.48,2.45 5.48,5.48" />
              </defs>
              <use
                 xlink:href="#79"
                 style="opacity:1;fill:#ffffff;fill-opacity:1;fill-rule:nonzero;stroke:none"
                 id="use430"
                 x="0"
                 y="0"
                 width="100%"
                 height="100%" />
            </g>
          </defs>
          <use
             xlink:href="#78"
             id="use435"
             x="0"
             y="0"
             width="100%"
             height="100%" />
          <defs
             id="defs445">
            <title
               id="title437">Shape 37</title>
            <g
               id="80">
              <defs
                 id="defs440">
                <path
                   id="81"
                   d="m 3054.12,1754.41 c -1.1,3.46 -3.4,5.82 -5.13,5.27 -1.73,-0.55 -2.24,-3.8 -1.13,-7.26 1.09,-3.46 3.39,-5.82 5.12,-5.27 1.73,0.55 2.24,3.8 1.14,7.26" />
              </defs>
              <use
                 xlink:href="#81"
                 style="opacity:1;fill:#ffffff;fill-opacity:1;fill-rule:nonzero;stroke:none"
                 id="use442"
                 x="0"
                 y="0"
                 width="100%"
                 height="100%" />
            </g>
          </defs>
          <use
             xlink:href="#80"
             id="use447"
             x="0"
             y="0"
             width="100%"
             height="100%" />
          <defs
             id="defs457">
            <title
               id="title449">Shape 38</title>
            <g
               id="82">
              <defs
                 id="defs452">
                <path
                   id="83"
                   d="m 3045.84,1773.96 c 0,1.82 -1.71,3.28 -3.84,3.28 -2.12,0 -3.83,-1.46 -3.83,-3.28 0,-1.82 1.71,-3.29 3.83,-3.29 2.13,0 3.84,1.47 3.84,3.29" />
              </defs>
              <use
                 xlink:href="#83"
                 style="opacity:1;fill:#ffffff;fill-opacity:1;fill-rule:nonzero;stroke:none"
                 id="use454"
                 x="0"
                 y="0"
                 width="100%"
                 height="100%" />
            </g>
          </defs>
          <use
             xlink:href="#82"
             id="use459"
             x="0"
             y="0"
             width="100%"
             height="100%" />
          <defs
             id="defs469">
            <title
               id="title461">Shape 39</title>
            <g
               id="84">
              <defs
                 id="defs464">
                <path
                   id="85"
                   d="m 3126.67,1836.7 c -1.35,2.71 -0.25,6 2.46,7.35 2.71,1.35 6,0.25 7.35,-2.46 1.35,-2.71 0.24,-6 -2.46,-7.34 -2.71,-1.36 -6,-0.26 -7.35,2.45" />
              </defs>
              <use
                 xlink:href="#85"
                 style="opacity:1;fill:#ffffff;fill-opacity:1;fill-rule:nonzero;stroke:none"
                 id="use466"
                 x="0"
                 y="0"
                 width="100%"
                 height="100%" />
            </g>
          </defs>
          <use
             xlink:href="#84"
             id="use471"
             x="0"
             y="0"
             width="100%"
             height="100%" />
          <defs
             id="defs481">
            <title
               id="title473">Shape 40</title>
            <g
               id="86">
              <defs
                 id="defs476">
                <path
                   id="87"
                   d="m 3127.97,1822.7 c -0.56,3.59 0.44,6.73 2.23,7.01 1.8,0.28 3.7,-2.4 4.27,-5.99 0.56,-3.59 -0.44,-6.72 -2.24,-7 -1.79,-0.28 -3.7,2.4 -4.26,5.98" />
              </defs>
              <use
                 xlink:href="#87"
                 style="opacity:1;fill:#ffffff;fill-opacity:1;fill-rule:nonzero;stroke:none"
                 id="use478"
                 x="0"
                 y="0"
                 width="100%"
                 height="100%" />
            </g>
          </defs>
          <use
             xlink:href="#86"
             id="use483"
             x="0"
             y="0"
             width="100%"
             height="100%" />
          <defs
             id="defs493">
            <title
               id="title485">Shape 41</title>
            <g
               id="88">
              <defs
                 id="defs488">
                <path
                   id="89"
                   d="m 3117.89,1831.04 c -0.81,1.62 0.06,3.71 1.96,4.65 1.9,0.95 4.09,0.4 4.9,-1.23 0.82,-1.62 -0.07,-3.7 -1.96,-4.65 -1.9,-0.95 -4.09,-0.39 -4.9,1.23" />
              </defs>
              <use
                 xlink:href="#89"
                 style="opacity:1;fill:#ffffff;fill-opacity:1;fill-rule:nonzero;stroke:none"
                 id="use490"
                 x="0"
                 y="0"
                 width="100%"
                 height="100%" />
            </g>
          </defs>
          <use
             xlink:href="#88"
             id="use495"
             x="0"
             y="0"
             width="100%"
             height="100%" />
        </g>
        <defs
           id="defs506">
          <title
             id="title498">Shape 42</title>
          <g
             id="90">
            <defs
               id="defs501">
              <path
                 id="91"
                 d="m 3245.17,441.862 c 0,129.373 -104.88,234.252 -234.25,234.252 -129.37,0 -234.25,-104.879 -234.25,-234.252 0,-129.374 104.88,-234.252 234.25,-234.252 129.37,0 234.25,104.878 234.25,234.252" />
            </defs>
            <use
               xlink:href="#91"
               style="opacity:1;fill:#dbf0fb;fill-opacity:1;fill-rule:evenodd;stroke:none"
               id="use503"
               x="0"
               y="0"
               width="100%"
               height="100%" />
          </g>
        </defs>
        <use
           xlink:href="#90"
           id="use508"
           x="0"
           y="0"
           width="100%"
           height="100%" />
      </g>
      <clipPath
         id="93">
        <use
           xlink:href="#92"
           id="use511"
           x="0"
           y="0"
           width="100%"
           height="100%" />
        <path
           id="92"
           d="m 0,0 c 1280,0 2560,0 3840,0 0,720 0,1440 0,2160 -1280,0 -2560,0 -3840,0 C 0,1440 0,720 0,0 Z" />
      </clipPath>
      <g
         id="94"
         clip-path="url(#93)" />
    </g>
  </g>
</svg>
